<svg width="81" height="92" viewBox="0 0 81 92" fill="none" xmlns="http://www.w3.org/2000/svg">
<path d="M17.4962 83.0715C16.5809 83.1217 6.75377 82.0726 5.85448 85.68C4.9552 89.2873 7.40501 86.4525 17.4962 88.6202C27.5874 90.788 32.7177 92.289 36.5812 90.1209C40.4445 87.9532 49.9463 93.8728 58.4489 91.3716C66.9514 88.8703 75.4934 91.9029 76.2859 87.5936C77.0783 83.2842 47.2097 81.4415 17.4962 83.0715Z" fill="#D3D9EF"/>
<path d="M14.2391 83.1882C13.8148 86.937 24.088 85.4557 28.3844 88.55C29.5511 89.3904 31.285 89.4104 32.6736 89.0376C36.3228 88.057 35.4425 89.3986 36.8423 89.3986C43.2081 89.3986 42.4466 87.6085 43.7059 87.8229C45.0046 88.0441 51.2139 87.3343 50.1914 88.1306C48.5633 89.3986 52.384 89.9462 53.1441 90.0327C55.8107 90.3354 57.4687 88.3593 58.1441 88.4496C58.7583 88.5314 59.3704 88.627 59.9859 88.7003C61.1383 88.8377 62.2727 88.8442 63.4058 88.5758C64.0917 88.4133 64.7259 88.1147 65.4064 87.943C66.0873 87.7713 66.7977 87.7473 67.4983 87.7364C68.7174 87.7181 71.2581 88.2049 71.1751 86.9659C70.9138 83.0715 38.7896 82.3573 14.2391 83.1882ZM67.6439 62.9305C64.8134 65.7531 65.0893 66.7174 65.2268 68.405C65.3626 70.055 61.7287 70.3871 62.9638 73.949H62.1887C62.1887 73.949 57.009 73.0187 57.6307 70.4017C58.2516 67.7848 62.1536 70.8499 62.2224 68.9903C62.2921 67.1306 59.7018 64.8238 60.7382 63.7913C61.7739 62.7578 62.3258 66.1667 63.9148 65.2703C65.5024 64.3729 62.8444 62.0352 63.2588 60.3825C63.6725 58.7298 64.7777 60.5891 66.8151 61.2779C68.6916 61.9127 67.5504 57.0276 69.0577 57.5674C69.3751 58.8153 69.5487 61.0312 67.6439 62.9305Z" fill="#D3D9EF"/>
<path d="M69.7513 66.6139C69.198 68.3361 64.8476 69.3004 66.5737 70.643C68.3008 71.9855 66.7472 73.9487 66.7472 73.9487H62.9643C61.7292 70.3871 65.3627 70.0546 65.2273 68.4047C65.0898 66.717 64.8136 65.7531 67.6444 62.9302C69.5488 61.0312 69.3756 58.815 69.0589 57.567C69.1888 57.6135 69.3379 57.7004 69.5094 57.8337C71.6853 59.5214 68.9912 62.8607 68.4389 63.6529C67.8864 64.4451 70.3035 64.8923 69.7513 66.6139Z" fill="#E1E6F4"/>
<path d="M6.37492 74.0728C7.32899 73.9653 8.45284 74.9879 8.83698 75.3713C9.25141 75.4544 9.9986 75.6288 10.4767 75.8758C10.2473 75.3835 10.0633 74.8532 9.94927 74.2825C9.84515 73.7614 9.6951 73.2999 9.5151 72.8887C9.19221 72.4785 8.95267 72.1114 8.77778 71.6466C8.01392 70.6708 7.09421 70.1703 6.50014 69.9311C5.854 70.2019 5.34022 70.3369 4.50932 70.2667C3.57397 70.188 3.53552 68.2835 4.5886 68.2839C5.55253 68.2842 6.56036 69.5708 6.72402 69.789C7.25209 70.0193 7.96458 70.4282 8.6182 71.1241C8.59575 71.0308 8.57397 70.9361 8.55491 70.8333C8.36403 69.8029 10.4151 69.2 10.7254 70.3339C10.9843 71.2795 10.0959 72.5817 9.79377 72.9881C9.94484 73.3651 10.0718 73.7797 10.1636 74.2401C10.5076 75.9627 11.4964 77.3219 12.4964 78.3051C12.4899 77.9842 12.5995 77.5937 12.7002 77.2842C12.428 76.4811 12.3048 75.886 12.4675 74.9187C12.6413 73.8852 14.7754 74.0172 14.6784 75.1888C14.5985 76.1568 13.3423 77.0684 12.9071 77.3568C12.7853 77.7338 12.639 78.2617 12.7536 78.5294C12.7567 78.5369 12.755 78.5443 12.7563 78.5518C13.9275 79.6294 15.0377 80.1869 15.0588 80.1974C15.1133 80.2238 15.1354 80.2893 15.1088 80.3436C15.1048 80.3521 15.0997 80.3596 15.0942 80.366C15.0626 80.4033 15.0081 80.4159 14.9625 80.3931C14.9282 80.3765 12.1565 78.9895 10.6961 76.3139C10.6934 76.3101 10.6893 76.3077 10.6869 76.3037C10.5219 76.0221 9.56546 75.7442 8.83324 75.5932C8.09047 76.019 7.52565 76.2596 6.53756 76.2881C5.48755 76.3183 5.20378 74.2048 6.37492 74.0728ZM7.87713 55.478C7.87713 56.958 8.95131 58.189 10.3657 58.4346C8.95097 58.6799 7.87713 59.9109 7.87713 61.3912C7.87713 59.9112 6.80194 58.6803 5.38717 58.4346C6.8016 58.189 7.87713 56.958 7.87713 55.478Z" fill="#D3D9EF"/>
<path d="M8.05075 64.9653C8.05075 65.9065 8.73397 66.6895 9.6336 66.8456C8.73397 67.0017 8.05075 67.7844 8.05075 68.726C8.05075 67.7848 7.36684 67.0017 6.46722 66.8456C7.36684 66.6892 8.05075 65.9065 8.05075 64.9653ZM5.03067 50.9387C5.03067 51.7296 5.60468 52.3874 6.36072 52.5187C5.60468 52.6501 5.03067 53.3076 5.03067 54.0988C5.03067 53.3079 4.45599 52.6501 3.69995 52.5187C4.45599 52.3874 5.03067 51.7299 5.03067 50.9387Z" fill="#F1F2FF"/>
<path d="M2.80273 60.3323C2.80273 60.5558 2.98477 60.7374 3.20899 60.7374C3.43322 60.7374 3.61525 60.5558 3.61525 60.3323C3.61525 60.1087 3.43322 59.9271 3.20899 59.9271C2.98477 59.9271 2.80273 60.1087 2.80273 60.3323Z" fill="#D3D9EF"/>
<path d="M0 65.4956C0 65.9251 0.349098 66.2729 0.779517 66.2729C1.21028 66.2729 1.55903 65.9248 1.55903 65.4956C1.55903 65.0664 1.20993 64.7183 0.779517 64.7183C0.349098 64.7179 0 65.066 0 65.4956Z" fill="#F1F2FF"/>
<path d="M7.20869 80.69C7.61816 80.69 7.9501 80.359 7.9501 79.9507C7.9501 79.5424 7.61816 79.2114 7.20869 79.2114C6.79922 79.2114 6.46729 79.5424 6.46729 79.9507C6.46729 80.359 6.79922 80.69 7.20869 80.69Z" fill="#F1F2FF"/>
<path d="M49.8102 16.3036V78.0079C49.8102 81.6061 47.1644 84.5247 43.8997 84.5247H33.2199C32.7513 84.5247 32.2886 84.5416 31.8429 84.4029C31.7493 84.3747 31.6527 84.3605 31.5506 84.3605H29.2481C29.146 84.3605 29.0494 84.3747 28.9586 84.4029C28.507 84.5416 28.0474 84.5247 27.5788 84.5247H16.8987C13.634 84.5247 10.9851 81.6061 10.9851 78.0079V16.3036C10.9851 12.7054 13.6336 9.78683 16.8987 9.78683H43.8993C47.1641 9.78683 49.8102 12.7054 49.8102 16.3036Z" fill="#4F3F3D"/>
<path d="M47.529 15.4465C47.2232 14.1036 46.3433 13.0138 45.1912 12.51C44.7492 12.3156 44.2667 12.2101 43.7607 12.2101H17.0381C14.8938 12.2101 13.1531 14.127 13.1531 16.4919V77.8176C13.1531 80.0301 14.6771 81.8511 16.6301 82.076C16.7638 82.0923 16.8999 82.0994 17.0381 82.0994H43.7611C45.9053 82.0994 47.6461 80.1821 47.6461 77.8176V16.4919C47.6461 16.1309 47.6056 15.7818 47.529 15.4465Z" fill="url(#paint0_radial_138_480)"/>
<path d="M49.8101 16.3036V34.0332H34.7329L32.4219 37.3793L29.8867 34.0332H26.2671C24.4756 34.0332 23.0251 32.5865 23.0251 30.8004V9.78683H43.8996C47.164 9.78683 49.8101 12.7054 49.8101 16.3036Z" fill="#D3D9EF"/>
<path d="M45.02 15.3885H42.6743V15.6464H45.02V15.3885Z" fill="#F1F2FF"/>
<path d="M45.02 16.1404H42.6743V16.3982H45.02V16.1404Z" fill="#F1F2FF"/>
<path d="M45.02 16.8923H42.6743V17.1501H45.02V16.8923Z" fill="#F1F2FF"/>
<path opacity="0.25" d="M47.529 15.4465C36.0336 28.8105 24.5763 42.186 13.1531 55.5734V49.9998C23.8326 37.5031 34.512 25.0064 45.1912 12.5096C46.3433 13.0138 47.2231 14.1036 47.529 15.4465ZM47.6461 20.3496V45.7299C37.3004 57.8422 26.9632 69.9593 16.6301 82.0763C14.6771 81.8514 13.1531 80.0304 13.1531 77.8179V60.6386C24.6148 47.197 36.1122 33.7675 47.6461 20.3496Z" fill="#F1F2FF"/>
<path d="M17.6115 14.9498C16.8098 14.9498 16.1589 15.5989 16.1589 16.3982C16.1589 17.1976 16.8098 17.8467 17.6115 17.8467C18.4131 17.8467 19.064 17.1976 19.064 16.3982C19.064 15.5989 18.4131 14.9498 17.6115 14.9498ZM18.2671 16.8973C18.2671 17.0215 18.1661 17.1223 18.0415 17.1223H17.816V16.3769H17.407V17.1223H17.1814C17.0569 17.1223 16.9558 17.0215 16.9558 16.8973V16.1475L17.473 15.5687C17.5458 15.4866 17.6775 15.4866 17.7503 15.5687L18.2675 16.1475V16.8973H18.2671ZM71.1916 3.13742H28.4308C26.6417 3.13742 25.1913 4.58381 25.1913 6.3678V28.8875C25.1913 30.6715 26.6417 32.1179 28.4308 32.1179H71.1916C72.9806 32.1179 74.4311 30.6715 74.4311 28.8875V6.3678C74.4311 4.58381 72.9806 3.13742 71.1916 3.13742Z" fill="#F1F2FF"/>
<path d="M38.3617 29.9977L34.5866 35.4643L30.5679 30.1585L38.3617 29.9977Z" fill="#F1F2FF"/>
<path d="M23.6604 45.0506H17.6134C17.5753 45.0506 17.5447 45.0201 17.5447 44.9821V37.611C17.5447 37.573 17.5753 37.5425 17.6134 37.5425H23.6604C23.6985 37.5425 23.7291 37.573 23.7291 37.611V44.9821C23.7291 45.0198 23.6985 45.0506 23.6604 45.0506Z" fill="#F1F2FF"/>
<path opacity="0.5" d="M17.5447 40.8777V44.5159C17.5447 44.8114 17.7849 45.051 18.0813 45.051H23.1929C23.4892 45.051 23.7294 44.8114 23.7294 44.5159V40.8777H17.5447Z" fill="#E1E6F4"/>
<path d="M23.1609 43.8509H18.0493V44.2601H23.1609V43.8509Z" fill="#D3D9EF"/>
<path d="M30.8547 45.0506H24.8077C24.7696 45.0506 24.739 45.0201 24.739 44.9821V37.611C24.739 37.573 24.7696 37.5425 24.8077 37.5425H30.8547C30.8928 37.5425 30.9234 37.573 30.9234 37.611V44.9821C30.9234 45.0198 30.8928 45.0506 30.8547 45.0506Z" fill="#F1F2FF"/>
<path opacity="0.5" d="M24.739 40.8777V44.5159C24.739 44.8114 24.9792 45.051 25.2756 45.051H30.3872C30.6835 45.051 30.9238 44.8114 30.9238 44.5159V40.8777H24.739Z" fill="#E1E6F4"/>
<path d="M30.3553 43.8509H25.2437V44.2601H30.3553V43.8509Z" fill="#D3D9EF"/>
<path d="M38.049 45.0506H32.0021C31.964 45.0506 31.9333 45.0201 31.9333 44.9821V37.611C31.9333 37.573 31.964 37.5425 32.0021 37.5425H38.049C38.0871 37.5425 38.1178 37.573 38.1178 37.611V44.9821C38.1178 45.0198 38.0871 45.0506 38.049 45.0506Z" fill="#F1F2FF"/>
<path opacity="0.5" d="M31.9333 40.8777V44.5159C31.9333 44.8114 32.1736 45.051 32.4696 45.051H37.5812C37.8775 45.051 38.1178 44.8114 38.1178 44.5159V40.8777H31.9333Z" fill="#E1E6F4"/>
<path d="M37.5496 43.8509H32.438V44.2601H37.5496V43.8509Z" fill="#D3D9EF"/>
<path d="M45.2434 45.0506H39.1964C39.1583 45.0506 39.1277 45.0201 39.1277 44.9821V37.611C39.1277 37.573 39.1583 37.5425 39.1964 37.5425H45.2434C45.2815 37.5425 45.3121 37.573 45.3121 37.611V44.9821C45.3121 45.0198 45.2815 45.0506 45.2434 45.0506Z" fill="#F1F2FF"/>
<path opacity="0.5" d="M39.1277 40.8777V44.5159C39.1277 44.8114 39.3679 45.051 39.6643 45.051H44.7759C45.0722 45.051 45.3124 44.8114 45.3124 44.5159V40.8777H39.1277Z" fill="#E1E6F4"/>
<path d="M44.7439 43.8509H39.6323V44.2601H44.7439V43.8509Z" fill="#D3D9EF"/>
<path d="M35.8 10.7226H34.6346L34.4478 11.2726H33.6516L34.7816 8.15858H35.6622L36.7921 11.2726H35.9871L35.8 10.7226ZM35.2174 8.99731L34.835 10.1373H35.6043L35.2174 8.99731ZM39.5849 11.2729H38.8245V10.9357C38.673 11.1487 38.4063 11.2994 38.0725 11.2994C37.4988 11.2994 37.1116 10.9048 37.1116 10.2435V8.79747H37.8677V10.1414C37.8677 10.4786 38.0589 10.6649 38.3437 10.6649C38.6373 10.6649 38.8241 10.4786 38.8241 10.1414V8.79747H39.5846V11.2729H39.5849ZM40.2518 9.42753H39.9493V8.7978H40.2518V8.19455H41.0123V8.7978H41.5104V9.42753H41.0123V10.421C41.0123 10.5672 41.0745 10.6293 41.2436 10.6293H41.5148V11.2726H41.128C40.6121 11.2726 40.2518 11.0551 40.2518 10.4121V9.42753ZM41.9371 7.99029H42.6979V9.13031C42.849 8.91723 43.1205 8.771 43.4628 8.771C44.0276 8.771 44.4059 9.16118 44.4059 9.82653V11.2726H43.6496V9.92866C43.6496 9.59174 43.4628 9.40513 43.1736 9.40513C42.8843 9.40513 42.6979 9.5914 42.6979 9.92866V11.2726H41.9371V7.99029ZM46.0378 11.3082C45.3083 11.3082 44.7836 10.8203 44.7836 10.0352C44.7836 9.25008 45.2994 8.76218 46.0378 8.76218C46.7629 8.76218 47.2746 9.24126 47.2746 9.99516C47.2746 10.0661 47.2702 10.1414 47.2613 10.2171H45.5397C45.5665 10.5407 45.7666 10.6917 46.0113 10.6917C46.2249 10.6917 46.345 10.5852 46.4073 10.4522H47.2168C47.0963 10.9357 46.656 11.3082 46.0378 11.3082ZM45.5437 9.79566H46.4958C46.4958 9.52524 46.2821 9.36985 46.0286 9.36985C45.7799 9.36985 45.5883 9.52083 45.5437 9.79566ZM49.3869 9.92866C49.3869 9.59174 49.2001 9.40513 48.9109 9.40513C48.6217 9.40513 48.4352 9.5914 48.4352 9.92866V11.2726H47.6744V8.79747H48.4352V9.1259C48.5863 8.91757 48.853 8.771 49.1868 8.771C49.7605 8.771 50.1433 9.16118 50.1433 9.82653V11.2726H49.3869V9.92866ZM50.7918 9.42753H50.4893V8.7978H50.7918V8.19455H51.5522V8.7978H52.0504V9.42753H51.5522V10.421C51.5522 10.5672 51.6145 10.6293 51.7836 10.6293H52.0551V11.2726H51.6683C51.1525 11.2726 50.7921 11.0551 50.7921 10.4121V9.42753H50.7918ZM52.4059 8.13246C52.4059 7.90174 52.5883 7.71988 52.8595 7.71988C53.1266 7.71988 53.309 7.90174 53.309 8.13246C53.309 8.35876 53.1266 8.54062 52.8595 8.54062C52.5883 8.54028 52.4059 8.35842 52.4059 8.13246ZM52.4774 8.7978H53.2382V11.2729H52.4774V8.7978ZM54.8833 8.76218C55.506 8.76218 55.9466 9.10384 56.0756 9.69387H55.2661C55.2038 9.52083 55.0793 9.40988 54.87 9.40988C54.5985 9.40988 54.4121 9.62296 54.4121 10.0352C54.4121 10.4478 54.5989 10.6605 54.87 10.6605C55.079 10.6605 55.1994 10.5584 55.2661 10.3765H56.0756C55.9466 10.9486 55.5063 11.3079 54.8833 11.3079C54.1538 11.3079 53.638 10.82 53.638 10.0349C53.638 9.25449 54.1538 8.76218 54.8833 8.76218ZM57.4229 8.76218C57.7921 8.76218 58.0545 8.93081 58.1882 9.14795V8.79747H58.949V11.2726H58.1882V10.9221C58.0504 11.1396 57.7877 11.3079 57.4185 11.3079C56.8136 11.3079 56.3287 10.8112 56.3287 10.0304C56.3287 9.25008 56.8136 8.76218 57.4229 8.76218ZM57.6451 9.42312C57.3603 9.42312 57.1024 9.63619 57.1024 10.0308C57.1024 10.4254 57.3603 10.6473 57.6451 10.6473C57.9343 10.6473 58.1878 10.4298 58.1878 10.0352C58.1878 9.6406 57.9343 9.42312 57.6451 9.42312ZM59.6196 9.42753H59.3171V8.7978H59.6196V8.19455H60.3801V8.7978H60.8782V9.42753H60.3801V10.421C60.3801 10.5672 60.4423 10.6293 60.6114 10.6293H60.883V11.2726H60.4961C59.9803 11.2726 59.62 11.0551 59.62 10.4121V9.42753H59.6196ZM61.2338 8.13246C61.2338 7.90174 61.4161 7.71988 61.6873 7.71988C61.9544 7.71988 62.1368 7.90174 62.1368 8.13246C62.1368 8.35876 61.9544 8.54062 61.6873 8.54062C61.4161 8.54028 61.2338 8.35842 61.2338 8.13246ZM61.3052 8.7978H62.066V11.2729H61.3052V8.7978ZM63.7469 11.3082C63.0174 11.3082 62.4658 10.8203 62.4658 10.0352C62.4658 9.25008 63.0306 8.76218 63.7557 8.76218C64.4852 8.76218 65.0456 9.25008 65.0456 10.0352C65.0456 10.8203 64.4764 11.3082 63.7469 11.3082ZM63.7469 10.6517C64.0184 10.6517 64.2715 10.4522 64.2715 10.0352C64.2715 9.6138 64.0225 9.41871 63.7557 9.41871C63.4798 9.41871 63.2399 9.6138 63.2399 10.0352C63.2399 10.4522 63.4709 10.6517 63.7469 10.6517ZM67.1627 9.92866C67.1627 9.59174 66.9759 9.40513 66.6866 9.40513C66.3974 9.40513 66.211 9.5914 66.211 9.92866V11.2726H65.4502V8.79747H66.211V9.1259C66.362 8.91757 66.6288 8.771 66.9626 8.771C67.5363 8.771 67.919 9.16118 67.919 9.82653V11.2726H67.1627V9.92866Z" fill="#D3D9EF"/>
<path opacity="0.25" d="M42.2961 56.333H18.8395C18.752 56.333 18.6809 56.2625 18.6809 56.1749V51.2098C18.6809 51.1226 18.7517 51.0517 18.8395 51.0517H42.2961C42.3835 51.0517 42.4546 51.1222 42.4546 51.2098V56.1749C42.4546 56.2621 42.3835 56.333 42.2961 56.333Z" fill="#F1F2FF"/>
<path d="M24.0728 54.8639C23.4457 54.8639 22.9353 54.3957 22.9353 53.7331C22.9353 53.0701 23.4457 52.6053 24.0728 52.6053C24.7029 52.6053 25.2038 53.0701 25.2038 53.7331C25.2038 54.396 24.6998 54.8639 24.0728 54.8639ZM24.0728 54.374C24.4256 54.374 24.6556 54.1195 24.6556 53.7331C24.6556 53.3405 24.4256 53.0921 24.0728 53.0921C23.7138 53.0921 23.4869 53.3405 23.4869 53.7331C23.4869 54.1195 23.7138 54.374 24.0728 54.374ZM25.3831 52.6368H27.0935V53.0674H26.5076V54.8422H25.969V53.0674H25.3831V52.6368ZM28.2368 54.0503H27.903V54.8419H27.3644V52.6365H28.2371C28.7791 52.6365 29.05 52.9412 29.05 53.3466C29.0496 53.7113 28.8009 54.0503 28.2368 54.0503ZM28.1959 53.6231C28.4103 53.6231 28.5015 53.5163 28.5015 53.3466C28.5015 53.177 28.41 53.0701 28.1959 53.0701H27.903V53.6231H28.1959ZM31.0183 52.6117C31.5444 52.6117 31.9414 52.9069 32.0673 53.3846H31.4749C31.3834 53.1963 31.2167 53.1016 31.0119 53.1016C30.6811 53.1016 30.4542 53.3466 30.4542 53.7361C30.4542 54.1256 30.6811 54.3709 31.0119 54.3709C31.2167 54.3709 31.3837 54.2766 31.4749 54.088H32.0673C31.9414 54.5653 31.5444 54.8578 31.0183 54.8578C30.3661 54.8578 29.906 54.396 29.906 53.7361C29.906 53.0765 30.3661 52.6117 31.0183 52.6117ZM33.1976 54.8673C32.6811 54.8673 32.2902 54.5216 32.2902 53.9658C32.2902 53.4097 32.6903 53.0643 33.2038 53.0643C33.7206 53.0643 34.1173 53.4097 34.1173 53.9658C34.1177 54.5216 33.7145 54.8673 33.1976 54.8673ZM33.1976 54.4025C33.3899 54.4025 33.5695 54.261 33.5695 53.9658C33.5695 53.6672 33.3933 53.5291 33.2041 53.5291C33.0088 53.5291 32.8387 53.6672 32.8387 53.9658C32.8387 54.261 33.0023 54.4025 33.1976 54.4025ZM35.0717 53.064C35.3048 53.064 35.5066 53.1709 35.6138 53.331V52.5174H36.1524V54.8419H35.6138V54.5904C35.5161 54.7506 35.3303 54.867 35.0717 54.867C34.6403 54.867 34.2966 54.5151 34.2966 53.9621C34.297 53.4094 34.6403 53.064 35.0717 53.064ZM35.2293 53.5322C35.0275 53.5322 34.8448 53.6832 34.8448 53.9624C34.8448 54.242 35.0275 54.3991 35.2293 54.3991C35.4341 54.3991 35.6134 54.245 35.6134 53.9655C35.6138 53.6859 35.4341 53.5322 35.2293 53.5322ZM37.3239 54.8673C36.807 54.8673 36.4355 54.5216 36.4355 53.9658C36.4355 53.4097 36.8009 53.0643 37.3239 53.0643C37.8373 53.0643 38.1997 53.4036 38.1997 53.9376C38.1997 53.9879 38.1966 54.0411 38.1901 54.0947H36.971C36.9901 54.3241 37.1316 54.431 37.3051 54.431C37.4562 54.431 37.5413 54.3557 37.5855 54.2613H38.1588C38.0738 54.6033 37.7618 54.8673 37.3239 54.8673ZM36.9744 53.7962H37.6485C37.6485 53.6045 37.497 53.4945 37.3177 53.4945C37.1411 53.4942 37.0057 53.6011 36.9744 53.7962Z" fill="#F1F2FF"/>
<path d="M32.5369 17.636C32.5369 16.4753 33.2422 15.8459 34.7308 15.8459C36.1411 15.8459 36.8723 16.4753 36.8723 17.5769V17.7541H35.5141V17.5081C35.5141 17.0161 35.2269 16.8295 34.7699 16.8295C34.2606 16.8295 33.9734 17.0164 33.9734 17.6753V18.9344C34.2214 18.5409 34.6655 18.3244 35.3055 18.3244C36.3633 18.3244 36.8985 18.8849 36.8985 19.898V21.1571C36.8985 22.2588 36.1282 22.8882 34.7179 22.8882C33.3075 22.8882 32.5372 22.2588 32.5372 21.1571V17.636H32.5369ZM33.9734 19.9869V21.2264C33.9734 21.7183 34.2606 21.8951 34.7175 21.8951C35.1748 21.8951 35.462 21.718 35.462 21.2264V19.9869C35.462 19.495 35.1748 19.3083 34.7175 19.3083C34.2609 19.308 33.9734 19.495 33.9734 19.9869ZM42.7672 17.5769C42.7672 16.4753 43.5375 15.8459 44.9479 15.8459C46.3582 15.8459 47.1286 16.4753 47.1286 17.5769V21.1575C47.1286 22.2592 46.3579 22.8885 44.9479 22.8885C43.5379 22.8885 42.7672 22.2592 42.7672 21.1575V17.5769ZM44.2037 21.2264C44.2037 21.7183 44.4909 21.9049 44.9482 21.9049C45.4052 21.9049 45.6924 21.718 45.6924 21.2264V17.5081C45.6924 17.0161 45.4052 16.8295 44.9482 16.8295C44.4909 16.8295 44.2037 17.0164 44.2037 17.5081V21.2264ZM55.2446 16.8295C54.7873 16.8295 54.5001 17.0164 54.5001 17.5081V18.2457H53.1422V17.5769C53.1422 16.4753 53.8734 15.8459 55.2837 15.8459C56.694 15.8459 57.4252 16.4753 57.4252 17.5769C57.4252 19.7409 54.5654 20.5474 54.5654 21.6786C54.5654 21.7278 54.5654 21.777 54.5787 21.8262H57.2949V22.8098H53.1422V21.964C53.1422 19.9377 55.9887 19.6032 55.9887 17.6163C55.989 16.9968 55.7015 16.8295 55.2446 16.8295ZM67.6165 21.0984C67.6165 22.2592 66.9111 22.8885 65.4225 22.8885C64.0122 22.8885 63.281 22.2592 63.281 21.1575V20.9804H64.6389V21.2264C64.6389 21.7183 64.9264 21.9049 65.3834 21.9049C65.8927 21.9049 66.1799 21.718 66.1799 21.0591V19.8C65.9319 20.1936 65.4879 20.41 64.8478 20.41C63.79 20.41 63.2548 19.8495 63.2548 18.8364V17.5773C63.2548 16.4756 64.0251 15.8462 65.4355 15.8462C66.8458 15.8462 67.6161 16.4756 67.6161 17.5773V21.0984H67.6165ZM66.1796 18.7475V17.5081C66.1796 17.0161 65.8924 16.8393 65.4355 16.8393C64.9782 16.8393 64.691 17.0164 64.691 17.5081V18.7475C64.691 19.2395 64.9782 19.4261 65.4355 19.4261C65.8924 19.4261 66.1796 19.2395 66.1796 18.7475Z" fill="#D3D9EF"/>
<path d="M37.6368 25.0549H32.0332V25.4149H37.6368V25.0549Z" fill="#D3D9EF"/>
<path d="M47.7498 25.0549H42.1462V25.4149H47.7498V25.0549Z" fill="#D3D9EF"/>
<path d="M57.8626 25.0549H52.259V25.4149H57.8626V25.0549Z" fill="#D3D9EF"/>
<path d="M67.9757 25.0549H62.3721V25.4149H67.9757V25.0549Z" fill="#D3D9EF"/>
<path d="M32.3353 4.84676C32.3353 5.18062 32.3199 5.55215 32.2897 5.93894C32.2743 6.25007 32.2441 6.58359 32.1985 6.92491C32.1529 7.28897 32.0995 7.65303 32.0236 8.03236C31.3162 11.6882 29.468 14.0544 26.6765 14.8965C26.6462 14.904 26.6156 14.9118 26.57 14.9267L26.4788 14.9495L26.3877 14.9267C26.3421 14.9115 26.3114 14.904 26.2886 14.8965C23.4972 14.0622 21.649 11.6882 20.9416 8.03236C20.4169 5.32448 20.6983 2.89007 20.7058 2.79134L20.7514 2.45748L21.0862 2.46494H21.223C23.6646 2.46494 25.6119 0.826511 26.1519 0.326058L26.1672 0.31079C26.1672 0.31079 26.19 0.295522 26.2206 0.265325L26.4792 0L26.7453 0.257861C26.7755 0.295861 26.7987 0.318594 26.8062 0.318594C27.3536 0.82685 29.3009 2.46494 31.735 2.46494H31.8797L32.2145 2.45748L32.2526 2.79134C32.259 2.84461 32.358 3.65619 32.3353 4.84676Z" fill="#6F9DF7"/>
<path d="M27.05 14.3744C26.8911 14.4358 26.7247 14.4935 26.5546 14.5437C26.5546 14.5437 26.54 14.5508 26.4821 14.5654C26.4318 14.5508 26.4063 14.5437 26.4063 14.5437C19.9105 12.6118 21.0783 2.83275 21.0783 2.83275C23.7278 2.90094 25.8462 1.11696 26.4063 0.59411C26.4063 0.59411 26.4352 0.569003 26.4821 0.525574C26.4821 0.525574 26.4821 0.529306 26.4859 0.532699C26.5257 0.564931 26.5546 0.593771 26.5546 0.593771C27.1184 1.11628 29.2368 2.9006 31.8863 2.83241C31.8867 2.83275 32.9928 12.1072 27.05 14.3744Z" fill="#ADBCFF"/>
<path opacity="0.2" d="M27.0501 14.3744C30.8817 11.3825 30.9504 4.70697 30.9504 4.70697C30.9504 4.70697 30.7949 4.97738 28.9372 3.66162C27.1478 2.40013 26.5299 0.662629 26.4863 0.53302C26.5261 0.565253 26.5551 0.594092 26.5551 0.594092C27.1189 1.1166 29.2373 2.90093 31.8868 2.83273C31.8868 2.83273 32.993 12.1072 27.0501 14.3744Z" fill="#F1F2FF"/>
<path opacity="0.23" d="M32.3351 4.84677C32.3351 5.18063 32.3198 5.55216 32.2896 5.93895L27.0412 12.2341L23.3447 8.44189L22.936 7.31918L27.0415 8.81341L32.3351 4.84677Z" fill="#D3D9EF"/>
<path d="M22.936 7.31918L24.789 5.60305L26.6332 7.68867L33.721 3.80719L26.6332 11.1067L22.936 7.31918Z" fill="#6F9DF7"/>
<path d="M71.5022 72.1918C70.8074 72.2122 70.1075 73.0594 69.8714 73.3732C69.5829 73.4753 69.0653 73.6762 68.7482 73.9022C68.8619 73.5259 68.9394 73.1272 68.9626 72.7069C68.9837 72.3228 69.0439 71.977 69.1307 71.6639C69.3198 71.3371 69.4539 71.0494 69.5315 70.6986C69.9786 69.9213 70.5863 69.469 70.9874 69.2369C71.4781 69.3649 71.8602 69.4093 72.4481 69.2743C73.1102 69.1226 72.9421 67.7539 72.1878 67.8618C71.4971 67.9605 70.9071 68.9852 70.8122 69.1579C70.4576 69.3767 69.9888 69.7425 69.592 70.3077C69.5985 70.2385 69.6046 70.1686 69.6077 70.093C69.6387 69.3353 68.1072 69.1124 68.0014 69.9566C67.9129 70.6606 68.6832 71.5031 68.9415 71.7633C68.8721 72.0486 68.8234 72.3587 68.8047 72.698C68.7349 73.9673 68.166 75.0422 67.5505 75.8487C67.5223 75.618 67.4035 75.3496 67.2998 75.1379C67.4124 74.5346 67.4396 74.0956 67.2239 73.4194C66.9932 72.6967 65.4777 73.0088 65.6672 73.8384C65.8237 74.5238 66.8176 75.0486 67.1589 75.2112C67.2848 75.4687 67.444 75.8321 67.3893 76.0356C67.3875 76.0411 67.3899 76.0465 67.3896 76.0519C66.6611 76.9436 65.9228 77.4562 65.9085 77.4657C65.8724 77.4902 65.8629 77.5394 65.8877 77.5757C65.8915 77.5811 65.8959 77.5862 65.9006 77.5903C65.9272 77.6137 65.9673 77.6171 65.998 77.5964C66.0208 77.5808 67.8646 76.3044 68.6363 74.2384C68.638 74.2354 68.6403 74.2333 68.6417 74.2303C68.7312 74.0118 69.3879 73.7149 69.8969 73.532C70.4729 73.7614 70.9023 73.876 71.6131 73.7956C72.3685 73.7105 72.3549 72.167 71.5022 72.1918Z" fill="#D3D9EF"/>
<path d="M50.1227 81.6349H36.3915C36.3534 81.6349 36.3228 81.6044 36.3228 81.5664V64.8662C36.3228 64.8282 36.3534 64.7977 36.3915 64.7977H50.1227C50.1608 64.7977 50.1914 64.8282 50.1914 64.8662V81.5664C50.1914 81.6041 50.1608 81.6349 50.1227 81.6349Z" fill="#D3D9EF"/>
<path d="M50.6422 82.5741H36.911C36.8729 82.5741 36.8423 82.5436 36.8423 82.5056V65.8054C36.8423 65.7674 36.8729 65.7368 36.911 65.7368H50.6422C50.6803 65.7368 50.7109 65.7674 50.7109 65.8054V82.5056C50.7109 82.5436 50.6803 82.5741 50.6422 82.5741Z" fill="#F1F2FF"/>
<path d="M47.7055 70.2674C46.8538 70.2097 45.9052 70.0377 45.2203 69.4921C44.4418 68.8722 44.2781 67.951 44.2332 67.0078C44.2132 66.5833 44.2176 66.1603 44.2274 65.7368H37.8811C37.3074 65.7368 36.8423 66.2006 36.8423 66.7727V81.5379C36.8423 82.1099 37.3074 82.5741 37.8811 82.5741H49.6718C50.2455 82.5741 50.7109 82.1103 50.7109 81.5379V70.134C49.7181 70.2535 48.7055 70.3349 47.7055 70.2674Z" fill="#D3D9EF"/>
<path d="M49.4374 79.8842H37.9744V80.8013H49.4374V79.8842Z" fill="#D3D9EF"/>
<path d="M39.8408 71.0925C39.8408 69.4615 40.832 68.577 42.9242 68.577C44.9058 68.577 45.9337 69.4615 45.9337 71.0094V71.2584H44.0249V70.9127C44.0249 70.2216 43.6214 69.9589 42.979 69.9589C42.2631 69.9589 41.8599 70.2216 41.8599 71.1475V72.9169C42.2086 72.3638 42.8323 72.0598 43.7316 72.0598C45.2182 72.0598 45.9705 72.8477 45.9705 74.2713V76.0407C45.9705 77.5889 44.8874 78.4738 42.9058 78.4738C40.9242 78.4738 39.8412 77.5892 39.8412 76.0407V71.0925H39.8408ZM41.8595 74.3958V76.1371C41.8595 76.8282 42.2631 77.0773 42.9055 77.0773C43.5479 77.0773 43.9514 76.8282 43.9514 76.1371V74.3958C43.9514 73.7047 43.5479 73.4421 42.9055 73.4421C42.2631 73.4421 41.8595 73.7047 41.8595 74.3958Z" fill="#D3D9EF"/>
<path opacity="0.5" d="M36.8423 73.2161V81.3744C36.8423 82.0367 37.3809 82.5738 38.0451 82.5738H49.5082C50.1723 82.5738 50.7109 82.0367 50.7109 81.3744V73.2161H36.8423Z" fill="#E1E6F4"/>
<path d="M43.6753 69.5722C43.6753 69.5722 50.8128 56.7989 47.6461 57.3658C32.0673 60.1558 33.8757 69.5722 33.8757 69.5722H32.2738C32.0081 69.5722 31.7927 69.7869 31.7927 70.0519V84.1026C31.7927 84.3676 32.0081 84.5824 32.2738 84.5824H43.6753C43.9411 84.5824 44.1565 84.3676 44.1565 84.1026V70.0519C44.1565 69.7869 43.9411 69.5722 43.6753 69.5722Z" fill="#D3D9EF"/>
<path d="M44.5696 70.8764H33.1681C32.9024 70.8764 32.687 71.0912 32.687 71.3561V85.4068C32.687 85.6718 32.9024 85.8866 33.1681 85.8866H44.5696C44.8354 85.8866 45.0507 85.6718 45.0507 85.4068V71.3561C45.0507 71.0915 44.8354 70.8764 44.5696 70.8764Z" fill="#D3D9EF"/>
<path d="M45.4449 86.724H33.2186C33.1805 86.724 33.1499 86.6934 33.1499 86.6554V71.7823C33.1499 71.7443 33.1805 71.7138 33.2186 71.7138H45.4449C45.483 71.7138 45.5136 71.7443 45.5136 71.7823V86.6554C45.5136 86.6934 45.483 86.724 45.4449 86.724Z" fill="#F1F2FF"/>
<path d="M44.3783 84.3259H34.1592V85.1436H44.3783V84.3259Z" fill="#D3D9EF"/>
<path d="M41.2217 74.3443V75.527L38.5715 82.9697H36.7722L39.4057 75.5766H35.8232V74.3439H41.2217V74.3443Z" fill="#D3D9EF"/>
<path opacity="0.5" d="M33.1499 78.3815V85.6545C33.1499 86.2452 33.63 86.724 34.2224 86.724H44.4415C45.0339 86.724 45.514 86.2452 45.514 85.6545V78.3815H33.1499Z" fill="#E1E6F4"/>
<path d="M64.9666 81.3913H50.8407C50.8026 81.3913 50.772 81.3608 50.772 81.3228V64.1435C50.772 64.1055 50.8026 64.075 50.8407 64.075H64.9666C65.0047 64.075 65.0353 64.1055 65.0353 64.1435V81.3228C65.0353 81.3608 65.0044 81.3913 64.9666 81.3913Z" fill="#D3D9EF"/>
<path d="M65.5008 82.3573H51.3749C51.3368 82.3573 51.3062 82.3268 51.3062 82.2888V65.1095C51.3062 65.0715 51.3368 65.0409 51.3749 65.0409H65.5008C65.5389 65.0409 65.5695 65.0715 65.5695 65.1095V82.2888C65.5695 82.3268 65.5389 82.3573 65.5008 82.3573Z" fill="#F1F2FF"/>
<path d="M60.1211 67.9778C59.626 67.9751 58.8461 67.8292 58.3637 68.0094C57.8842 68.1882 57.6784 68.8763 57.4171 69.2671C56.4542 70.7088 54.809 70.7312 53.2197 70.8659C52.5828 70.9198 51.9445 70.9544 51.3062 70.9812V81.2923C51.3062 81.8806 51.7845 82.3576 52.3745 82.3576H64.5008C65.0908 82.3576 65.5692 81.8806 65.5692 81.2923V67.8869C63.7594 68.0491 61.938 67.9877 60.1211 67.9778Z" fill="#D3D9EF"/>
<path d="M64.2595 79.5907H52.4705V80.534H64.2595V79.5907Z" fill="#D3D9EF"/>
<path d="M55.4104 70.4638C55.4104 68.8719 56.5237 67.9622 58.5618 67.9622C60.6003 67.9622 61.7139 68.8719 61.7139 70.4638V75.6383C61.7139 77.2306 60.6006 78.1406 58.5618 78.1406C56.5237 78.1406 55.4104 77.231 55.4104 75.6383V70.4638ZM57.4859 75.7374C57.4859 76.4482 57.9014 76.7183 58.5615 76.7183C59.2222 76.7183 59.6377 76.4482 59.6377 75.7374V70.3641C59.6377 69.6533 59.2222 69.3832 58.5615 69.3832C57.901 69.3832 57.4859 69.6533 57.4859 70.3641V75.7374Z" fill="#D3D9EF"/>
<path opacity="0.5" d="M51.3062 72.7333V81.124C51.3062 81.8053 51.8601 82.3576 52.5433 82.3576H64.3323C65.0156 82.3576 65.5695 81.8053 65.5695 81.124V72.7333H51.3062Z" fill="#E1E6F4"/>
<path d="M58.6322 86.3297H44.2311C44.193 86.3297 44.1624 86.2992 44.1624 86.2612V68.748C44.1624 68.71 44.193 68.6795 44.2311 68.6795H58.6322C58.6703 68.6795 58.701 68.71 58.701 68.748V86.2612C58.701 86.2988 58.6703 86.3297 58.6322 86.3297Z" fill="#D3D9EF"/>
<path d="M59.1769 87.3143H44.7758C44.7377 87.3143 44.707 87.2838 44.707 87.2458V69.7326C44.707 69.6946 44.7377 69.6641 44.7758 69.6641H59.1769C59.215 69.6641 59.2456 69.6946 59.2456 69.7326V87.2458C59.2456 87.2834 59.215 87.3143 59.1769 87.3143Z" fill="#F1F2FF"/>
<path d="M57.9105 84.4942H45.8938V85.4557H57.9105V84.4942Z" fill="#D3D9EF"/>
<path d="M52.1028 83.0155C49.9674 83.0155 48.7942 82.0882 48.7942 80.4651V79.6684C48.7942 78.6974 49.1787 77.9438 50.1021 77.5526C49.2168 77.1902 48.7942 76.5093 48.7942 75.5094V75.1908C48.7942 73.5683 49.9674 72.641 52.1028 72.641C54.2382 72.641 55.4114 73.5683 55.4114 75.1908V75.5094C55.4114 76.5093 54.9691 77.1902 54.1035 77.5526C55.0273 77.9438 55.4114 78.6974 55.4114 79.6684V80.4651C55.4114 82.0882 54.2382 83.0155 52.1028 83.0155ZM50.9102 75.8141C50.9102 76.6253 51.4104 76.8862 52.1028 76.8862C52.7762 76.8862 53.2954 76.6253 53.2954 75.8141V75.2485C53.2954 74.3358 52.7762 74.0895 52.1028 74.0895C51.4294 74.0895 50.9102 74.3358 50.9102 75.2485V75.8141ZM52.1028 81.5661C52.7762 81.5661 53.276 81.3197 53.2954 80.4213V79.4798C53.2954 78.6828 52.8531 78.335 52.1028 78.335C51.3525 78.335 50.9102 78.6828 50.9102 79.4798V80.4213C50.9102 81.3197 51.4294 81.5661 52.1028 81.5661Z" fill="#D3D9EF"/>
<path opacity="0.5" d="M44.707 77.5044V86.0569C44.707 86.7514 45.2715 87.3143 45.968 87.3143H57.9847C58.6812 87.3143 59.2456 86.7514 59.2456 86.0569V77.5044H44.707Z" fill="#E1E6F4"/>
<path d="M70.1043 86.3704H59.0053C58.9671 86.3704 58.9365 86.3399 58.9365 86.3019V72.7974C58.9365 72.7594 58.9671 72.7289 59.0053 72.7289H70.1043C70.1424 72.7289 70.173 72.7594 70.173 72.7974V86.3019C70.173 86.3399 70.1424 86.3704 70.1043 86.3704Z" fill="#D3D9EF"/>
<path d="M70.5252 87.1315H59.4262C59.388 87.1315 59.3574 87.1009 59.3574 87.0629V73.5585C59.3574 73.5205 59.388 73.4899 59.4262 73.4899H70.5252C70.5633 73.4899 70.5939 73.5205 70.5939 73.5585V87.0629C70.5939 87.1009 70.5633 87.1315 70.5252 87.1315Z" fill="#F1F2FF"/>
<path d="M69.5622 84.9518H60.2747V85.6949H69.5622V84.9518Z" fill="#D3D9EF"/>
<path d="M61.5042 81.1772L64.4776 75.8802H66.2619V81.1772H67.0353V82.2972H66.2619V83.7192H64.6562V82.2972H61.5042V81.1772ZM64.6562 81.1772V78.2319L63.006 81.1772H64.6562Z" fill="#D3D9EF"/>
<path opacity="0.5" d="M59.3574 79.5497V86.1597C59.3574 86.6965 59.7936 87.1314 60.3319 87.1314H69.6194C70.1577 87.1314 70.5939 86.6965 70.5939 86.1597V79.5497H59.3574Z" fill="#E1E6F4"/>
<path d="M35.7019 41.044C35.7019 41.044 35.0135 42.6675 37.562 44.5797C39.0751 50.7816 44.2361 56.616 45.7553 56.8355C47.2745 57.0547 49.2299 55.8482 49.2299 55.8482V52.668C49.2299 52.668 43.6324 50.9119 42.6689 49.6239C41.7056 48.336 35.7019 41.044 35.7019 41.044Z" fill="#D3D9EF"/>
<path d="M50.5778 49.4444C50.5778 49.4444 51.0276 54.0106 46.8364 55.2785C45.0157 55.8295 38.984 48.7143 38.3046 44.6503C38.162 43.7983 39.1916 43.6687 39.1916 43.6687L45.95 50.406L46.8435 47.5678L50.5778 49.4444Z" fill="#F4CABA"/>
<path d="M36.4569 42.7088C36.6645 43.0319 36.8639 43.3107 36.9881 43.4383C37.0837 43.5367 37.1871 43.6205 37.2885 43.6908C37.376 43.7508 37.4614 43.801 37.54 43.8421C37.7434 43.95 37.8986 43.9951 37.8986 43.9951L39.3185 46.4594C39.8407 46.2809 40.4236 45.7944 40.5185 45.7058C40.5185 45.7058 39.0092 43.5588 39.0745 43.0736C39.0742 43.0695 39.0752 43.0641 39.0762 43.0604C39.0789 43.0542 39.0827 43.0475 39.0861 43.0407C39.132 42.9382 39.133 42.7645 39.1007 42.5748C39.0769 42.4357 39.0354 42.2888 38.9826 42.1555C38.8533 41.8301 39.3919 41.0365 39.2045 40.9289C39.016 40.8217 38.5784 41.198 38.5495 41.4874C38.5202 41.7761 38.261 41.7466 38.1129 41.5125L38.0663 41.4389C37.771 40.9713 36.8499 39.529 36.5917 39.6396C36.4233 39.7119 36.7448 40.3484 37.0177 40.8282C36.6628 40.2537 36.1242 39.4489 35.9911 39.6138C35.8887 39.7407 36.3317 40.6192 36.5839 41.1071C36.3804 40.7885 35.9544 40.1727 35.8431 40.2392C35.6029 40.3834 35.984 41.0596 36.2678 41.4986C36.081 41.2489 35.8397 40.9825 35.7016 41.0436C35.5338 41.1193 36.0119 42.0181 36.4569 42.7088Z" fill="#F4CABA"/>
<path opacity="0.1" d="M37.7478 43.8631C37.7978 43.8876 37.8495 43.9089 37.9064 43.9211C38.0972 43.9608 38.3021 43.9218 38.4787 43.8431C38.657 43.7637 38.8257 43.6375 38.907 43.4556C38.9414 43.3807 38.954 43.3013 38.9656 43.2202C38.7458 43.4607 38.3936 43.5391 38.3936 43.5391C38.1871 43.7189 37.9731 43.8234 37.7662 43.8472C37.7573 43.8584 37.7505 43.8635 37.7478 43.8631Z" fill="#231F20"/>
<path opacity="0.2" d="M36.5443 42.6692C36.5283 42.8188 36.8638 43.3108 36.9879 43.4383C37.0836 43.5367 37.187 43.6205 37.2884 43.6908C37.3758 43.7508 37.4612 43.801 37.5398 43.8421C37.6137 43.856 37.6895 43.8574 37.7661 43.8475C37.9726 43.8238 38.187 43.7196 38.3935 43.5394C38.3935 43.5394 38.746 43.4611 38.9655 43.2205C39.009 43.174 39.0471 43.1211 39.0761 43.0607C39.0788 43.0546 39.0825 43.0478 39.0859 43.041C39.1319 42.9386 39.1329 42.7648 39.1006 42.5752C39.0767 42.4361 39.0352 42.2892 38.9825 42.1558C38.8532 41.8304 39.3918 41.0368 39.2043 40.9293C39.0158 40.8221 38.5783 41.1983 38.5494 41.4878C38.5201 41.7765 38.3241 41.7202 38.0696 41.6096C37.8488 41.5135 37.5143 41.5987 37.1326 41.8773C36.727 42.1721 36.6058 42.5345 36.5443 42.6692Z" fill="white"/>
<path d="M36.737 42.2474C36.7343 42.2454 36.7309 42.2447 36.7289 42.2417L36.2773 41.5162L36.7649 42.2104C36.7789 42.1921 36.7921 42.1731 36.8068 42.1551C36.8745 42.0734 36.948 41.9953 37.0303 41.9254C37.03 41.9248 37.0293 41.9248 37.029 41.9244L36.6227 41.1729L37.0667 41.8956C37.0735 41.8901 37.08 41.8844 37.0871 41.879C37.195 41.803 37.3049 41.7324 37.4213 41.672C37.4434 41.6608 37.4655 41.6496 37.4876 41.6391C37.4873 41.6384 37.4859 41.6384 37.4856 41.6374L37.0793 40.8858L37.5264 41.614C37.5267 41.6143 37.5267 41.6146 37.5271 41.615C37.5281 41.6167 37.5271 41.6184 37.5278 41.6201C37.6108 41.5817 37.6959 41.5481 37.784 41.5261C37.6639 41.576 37.5495 41.6377 37.4383 41.7035C37.3277 41.77 37.2175 41.8393 37.115 41.9166C37.0123 41.9913 36.9221 42.0842 36.8354 42.1785C36.7486 42.2735 36.6666 42.373 36.5863 42.4744C36.6305 42.3953 36.6822 42.3207 36.737 42.2474Z" fill="#E8AD80"/>
<path d="M51.1742 40.0295C51.1742 40.0295 50.8551 40.7294 51.6407 42.889C52.4553 45.1273 49.8809 52.4007 49.8809 52.4007C49.8809 52.4007 45.5553 49.8482 45.9184 48.3187C46.5043 45.85 46.9473 39.9491 51.1742 40.0295Z" fill="#23548F"/>
<path opacity="0.15" d="M45.9142 48.4639C46.2691 48.7296 46.7642 48.8127 47.1463 48.5457C47.5087 48.2922 47.7097 47.823 47.7921 47.4029C47.8928 46.8882 47.7353 46.4122 47.6179 45.9138C47.4852 45.3495 47.5311 44.7901 47.6754 44.2326C47.7986 43.7562 48.0122 43.2945 48.3834 42.9599C48.7553 42.6247 49.2793 42.4364 49.7805 42.4768C50.2157 42.5117 50.6121 42.7319 50.934 43.0159C51.2752 43.3165 51.5566 43.6779 51.7982 44.0667C51.7951 46.9904 49.8809 52.401 49.8809 52.401C49.8809 52.401 45.7992 49.9921 45.8993 48.4524C45.9047 48.4558 45.9091 48.4602 45.9142 48.4639Z" fill="#202234"/>
<path d="M38.1105 86.8509C38.1105 86.8509 37.6811 85.4343 37.8781 85.3244C38.0751 85.2145 38.5501 85.149 38.6655 85.2389C38.7808 85.3288 38.8284 86.8587 38.6546 87.0673C38.4811 87.2763 38.2385 87.2244 38.1105 86.8509Z" fill="#F4CABA"/>
<path opacity="0.2" d="M38.5031 86.5109C38.3595 86.3178 38.2271 86.117 38.0982 85.9141C38.0359 85.816 37.9747 85.7173 37.9059 85.6233C37.8794 85.587 37.8529 85.5507 37.8267 85.5141C37.8307 85.9273 38.1104 86.8509 38.1104 86.8509C38.2384 87.2241 38.4806 87.2763 38.6548 87.0677C38.6861 87.03 38.7103 86.9486 38.7283 86.8407C38.6559 86.729 38.5827 86.6181 38.5031 86.5109Z" fill="white"/>
<path d="M38.1234 85.9575C38.0349 85.9453 37.9478 85.9232 37.8594 85.909C37.8822 86.557 38.1003 86.8651 38.1003 86.8651C38.234 87.2556 38.4875 87.3099 38.6692 87.0917C38.7753 86.9642 38.8026 86.365 38.7825 85.87C38.6004 85.988 38.3153 85.9843 38.1234 85.9575Z" fill="#CED9EF"/>
<path d="M35.5623 87.9098L35.4143 87.9413C35.4143 87.9413 35.369 88.1273 35.4391 88.208C35.5092 88.2884 36.1417 88.4621 37.354 88.3729C38.5664 88.2837 39.1142 88.055 39.0781 87.8409C39.0414 87.6275 36.1067 88.3889 35.5623 87.9098Z" fill="#432D29"/>
<path d="M39.0775 87.8413C37.495 88.4448 35.0642 88.1578 35.4501 87.8816C35.5351 87.8209 35.6855 87.7653 35.8686 87.7103C36.5195 87.5159 37.5855 87.3344 37.5991 87.0025C37.6165 86.5771 37.8383 86.5051 37.8904 86.518C37.9036 86.5214 37.94 86.534 37.9904 86.5482C38.1374 86.59 38.4028 86.6456 38.5593 86.5275C38.7696 86.3691 38.8009 86.3508 38.9006 86.4434C39.1939 86.7162 39.1973 86.9577 39.0775 87.8413Z" fill="#4F3F3D"/>
<path d="M53.3531 87.2519C53.3531 87.2519 52.6331 85.8622 52.8165 85.7102C52.9999 85.5582 53.481 85.3987 53.6185 85.4699C53.756 85.5415 54.101 87.1223 53.9608 87.3727C53.8203 87.6227 53.5579 87.6153 53.3531 87.2519Z" fill="#F4CABA"/>
<path opacity="0.2" d="M53.6953 86.823C53.5089 86.65 53.3326 86.4664 53.1595 86.2805C53.0754 86.1903 52.9931 86.1 52.9032 86.0152C52.8685 85.9826 52.8342 85.95 52.7998 85.9171C52.8838 86.346 53.3531 87.2519 53.3531 87.2519C53.5579 87.6153 53.8202 87.6231 53.9604 87.3727C53.9859 87.3272 53.9951 87.2383 53.9927 87.1226C53.8964 87.0202 53.7988 86.9191 53.6953 86.823Z" fill="white"/>
<path d="M53.1939 86.3205C53.0993 86.3246 53.0047 86.3188 52.9102 86.3205C53.0592 86.99 53.4627 87.7727 53.4627 87.7727C53.6771 88.1527 54.1289 88.0116 54.2756 87.7496C54.3613 87.5966 53.9785 86.613 53.8622 86.1024C53.6955 86.2608 53.3988 86.3117 53.1939 86.3205Z" fill="#CED9EF"/>
<path d="M52.2241 89.0841C52.2241 89.0841 52.2561 89.305 52.4701 89.3633C53.0013 89.5079 54.5453 88.9222 54.594 88.7597C54.6423 88.5969 54.5766 88.4164 54.5766 88.4164L52.2241 89.0841Z" fill="#432D29"/>
<path d="M53.179 87.146C53.179 87.146 54.1017 86.7148 54.2178 86.9815C54.3338 87.2482 54.673 88.3919 54.5679 88.6019C54.4627 88.812 53.4171 88.8724 53.4171 88.8724C53.4171 88.8724 52.5594 88.5775 52.9602 88.4014C53.6863 88.0825 52.8125 87.3025 53.179 87.146Z" fill="#4F3F3D"/>
<path d="M52.2919 89.2113C52.5994 89.3704 53.5161 89.2293 53.6576 88.9711C53.7988 88.7129 53.4188 87.9505 52.6314 88.3037C52.3065 88.4496 52.0761 89.0997 52.2919 89.2113Z" fill="#4F3F3D"/>
<path opacity="0.2" d="M52.792 88.3152C52.6804 88.3454 52.5953 88.3912 52.5324 88.4462C52.5671 88.4808 52.6035 88.5134 52.6416 88.5439C52.7147 88.4764 52.8192 88.4136 52.9601 88.4014C53.2847 88.3736 53.2955 88.3831 53.2955 88.3831C53.2955 88.3831 53.0546 88.244 52.792 88.3152ZM52.4558 88.586C52.4419 88.6257 52.4667 88.6684 52.5085 88.6745C52.5351 88.6783 52.5609 88.6661 52.5746 88.643C52.5858 88.624 52.6021 88.5992 52.6232 88.5721C52.5854 88.5415 52.549 88.5093 52.5143 88.475C52.4891 88.5103 52.4694 88.5473 52.4558 88.586Z" fill="white"/>
<path d="M50.3565 57.4982C50.0211 57.6342 37.6995 59.7596 35.2939 66.8925C32.8884 74.0254 37.69 85.7685 37.69 85.7685L38.902 85.643L43.2221 67.9616L60.5471 61.4733L50.3565 57.4982Z" fill="#432D29"/>
<path opacity="0.2" d="M34.9417 75.6421C34.4977 72.6373 34.4259 69.4656 35.2939 66.8924C36.235 64.1011 38.6951 62.0769 41.3606 60.6386C41.5263 60.8375 41.4351 61.1937 41.3415 61.4C41.0091 62.1315 40.3436 62.7131 39.7529 63.2376C38.8492 64.04 38.0751 65.0504 37.4113 66.0547C36.6587 67.1934 36.0394 68.4406 35.6893 69.7632C35.5243 70.3868 35.4212 71.0294 35.3994 71.6741C35.3786 72.2909 35.445 72.9084 35.4429 73.5256C35.4409 74.0878 35.3398 75.0812 34.9417 75.6421Z" fill="#F2FAFF"/>
<path opacity="0.3" d="M38.0397 85.5354C38.4082 85.0007 38.5657 84.2858 38.6467 83.6544C38.7495 82.8523 38.7522 82.0333 38.8026 81.2264C38.8573 80.3504 38.7944 79.4733 38.8893 78.599C38.9812 77.7521 39.1959 76.9242 39.3854 76.0954C39.5661 75.3045 39.742 74.4946 39.7546 73.6803C39.7661 72.9389 39.6348 72.2057 39.5052 71.4786C39.3755 70.7515 39.2507 70.0187 39.2871 69.277C39.3242 68.5302 39.5518 67.8211 39.8944 67.1598C40.527 65.939 41.495 64.9208 42.547 64.0485C43.6358 63.1457 44.8373 62.3599 46.1016 61.7257C46.8464 61.3522 47.6103 61.0186 48.383 60.7072C49.1186 60.4106 49.8723 60.1552 50.58 59.7948C51.3534 59.4016 52.0758 58.9232 52.8032 58.4523L60.547 61.4726L43.2221 67.9609L38.9019 85.6423L37.8386 85.7526C37.9118 85.6935 37.9798 85.6226 38.0397 85.5354Z" fill="#202234"/>
<path d="M50.413 69.394L54.1326 85.945L52.7655 86.2581C52.7655 86.2581 40.9074 72.3445 41.7315 68.4366C42.3681 65.4182 46.9605 59.0895 50.1554 58.8265C53.3504 58.5636 62.6498 59.5655 62.6498 59.5655C62.6498 59.5655 64.0506 64.9934 59.741 66.6441C55.4317 68.2947 50.413 69.394 50.413 69.394Z" fill="#4F3F3D"/>
<path opacity="0.2" d="M41.7318 68.4369C42.0802 66.7839 43.6161 64.1394 45.4582 62.0409C45.4966 62.0491 45.5354 62.0596 45.5752 62.0755C45.7916 62.1638 45.7702 62.4209 45.729 62.612C45.5817 63.2953 45.1465 63.9304 44.7631 64.5028C44.2904 65.2082 43.7222 65.8376 43.2323 66.5291C42.5511 67.4906 42.2938 68.5841 42.5657 69.7411C42.8539 70.9666 43.6212 72.0398 44.3602 73.036C44.7042 73.4998 45.089 73.985 45.2067 74.5638C45.2976 75.011 45.1758 75.4748 44.824 75.7364C42.8787 72.7391 41.4245 69.8931 41.7318 68.4369Z" fill="#F2FAFF"/>
<path opacity="0.3" d="M53.5016 86.0898C53.5026 86.0864 53.5043 86.0837 53.5053 86.0803C53.6292 85.7003 53.6448 85.2888 53.5931 84.8952C53.5326 84.4348 53.343 84.0198 53.2008 83.5811C52.8415 82.473 52.5965 81.3445 52.0661 80.2982C51.5819 79.3437 51.0072 78.4453 50.685 77.4172C50.3277 76.2765 50.2158 75.0778 49.8929 73.9283C49.7755 73.5106 49.6156 73.1259 49.3434 72.7842C49.0882 72.4636 48.7677 72.2068 48.4448 71.9577C47.8109 71.4681 46.7228 70.5738 47.2923 69.6658C47.6486 69.0978 48.5091 69.0096 49.1069 68.9C49.8391 68.7657 50.5411 68.5842 51.0195 67.9673C51.2348 67.6894 51.3873 67.3647 51.621 67.1015C51.9004 66.7869 52.3063 66.5861 52.6966 66.4429C53.602 66.1107 54.5826 66.0588 55.5346 65.9757C57.0749 65.8407 58.848 65.5489 59.7993 64.1771C60.1419 63.6828 60.2297 63.0558 59.8636 62.5478C59.473 62.0063 58.803 61.7128 58.18 61.5239C57.0841 61.1914 55.9293 61.0672 54.8071 60.8514C53.719 60.6424 52.5264 60.4059 51.6074 59.7501C51.2685 59.5085 50.9844 59.1838 50.8398 58.7919C54.5023 58.6884 62.6499 59.5662 62.6499 59.5662C62.6499 59.5662 64.0508 64.9941 59.7411 66.6448C55.4315 68.2951 50.4128 69.3947 50.4128 69.3947L54.1324 85.9456L53.5016 86.0898Z" fill="#202234"/>
<path d="M48.4937 41.1461C47.6353 42.4211 47.7142 57.4398 50.1559 58.8268C52.5975 60.2139 59.7394 60.6685 62.4406 61.6385C65.1419 62.6082 65.852 50.5515 60.9609 44.1176C56.0698 37.6836 49.54 39.5915 48.4937 41.1461Z" fill="#23548F"/>
<path opacity="0.15" d="M49.4657 57.5291C49.9567 57.7601 50.4388 58.0203 50.9043 58.2989C51.3568 58.5697 51.7981 58.8625 52.2775 59.085C53.2581 59.5397 54.3418 59.6035 55.4078 59.6371C56.5426 59.6727 57.6902 59.6557 58.8029 59.9143C59.2598 60.0205 59.6964 60.1942 60.156 60.2885C60.5575 60.3709 60.9723 60.4178 61.3827 60.392C61.7872 60.3665 62.2016 60.2726 62.5449 60.049C62.8559 59.8464 63.0679 59.5458 63.2268 59.216C63.5283 58.5907 63.6708 57.6861 64.3411 57.3302C64.4058 57.296 64.4691 57.2715 64.5273 57.2658C64.3731 60.1175 63.5861 62.0491 62.4405 61.6375C59.7392 60.6678 52.5974 60.2128 50.1557 58.8258C49.7978 58.6226 49.4909 58.1245 49.2302 57.4215C49.3105 57.4575 49.3895 57.4934 49.4657 57.5291Z" fill="#202234"/>
<path opacity="0.15" d="M49.3444 49.2975C49.4723 49.3942 49.6098 49.4784 49.7571 49.5466C50.2913 49.7939 50.881 49.8913 51.4111 50.1481C51.9511 50.4097 52.3995 50.7914 52.8694 51.1565C53.8755 51.9382 54.8643 52.7457 55.916 53.4667C57.4444 54.5148 59.2226 55.5086 61.1327 55.5157C61.7728 55.5181 62.5604 55.3691 62.8146 54.696C62.9439 54.3533 62.951 53.8684 62.6693 53.598C62.3998 53.3388 61.9582 53.3303 61.6077 53.3096C60.8132 53.2628 60.016 53.3466 59.2229 53.2608C58.4886 53.1814 57.7193 52.9127 57.4842 52.1411C57.3076 51.5623 57.3076 50.9244 57.2307 50.3269C57.1902 50.0131 57.1392 49.7009 57.0579 49.3949C56.9745 49.0807 56.8534 48.7788 56.7714 48.4642C56.6217 47.8902 56.5567 47.2947 56.574 46.703C57.2392 46.9829 57.9085 47.2553 58.6013 47.4606C59.2079 47.6404 59.8531 47.7999 60.4815 47.8807C60.8078 47.9227 61.114 47.8983 61.3981 47.7921C61.4342 47.8912 61.4665 47.9909 61.5074 48.089C61.7915 48.772 62.2151 49.3559 62.572 49.9982C62.9585 50.6937 63.2552 51.4361 63.4825 52.1978C63.9204 53.6645 63.4917 55.2802 62.4376 56.3812C61.9044 56.938 61.2617 57.3221 60.5087 57.5019C60.0858 57.6027 59.6537 57.6454 59.2195 57.6634C58.3052 57.565 57.408 57.3275 56.573 56.9394C55.246 56.3225 54.0599 55.4231 53.1896 54.244C52.834 53.7622 52.5843 53.2204 52.2634 52.7176C51.947 52.2219 51.5285 51.8341 50.9912 51.586C50.4713 51.3458 49.9262 51.1507 49.6067 50.6408C49.3556 50.2391 49.3151 49.7627 49.3444 49.2975Z" fill="#202234"/>
<path d="M51.5191 49.2511L51.432 49.1513C51.432 49.1513 51.5933 49.0543 51.6205 49.0896C51.6477 49.1252 51.5191 49.2511 51.5191 49.2511ZM51.2469 48.5938C51.2387 48.5633 51.1081 48.4666 51.1081 48.4666C51.1081 48.4666 51.2683 48.3509 51.3564 48.3699C51.4446 48.3889 51.2469 48.5938 51.2469 48.5938ZM50.8593 47.7891C50.8457 47.7714 50.7545 47.7029 50.7545 47.7029C50.7545 47.7029 50.8648 47.5841 50.9151 47.5933C50.9652 47.6024 50.8593 47.7891 50.8593 47.7891ZM50.0931 47.7517L49.958 47.6798C49.958 47.6798 50.0261 47.5824 50.1128 47.577C50.1992 47.5716 50.0931 47.7517 50.0931 47.7517Z" fill="#E8AD80"/>
<path d="M49.874 45.2423L48.1159 45.6061C47.9097 45.6488 47.806 45.8578 47.8822 46.0726L49.3943 50.3235C49.4654 50.5237 49.6872 50.6649 49.8907 50.6398L50.5657 50.556C50.5957 50.5522 50.6253 50.5495 50.6515 50.5383C50.6569 50.5359 50.6627 50.5342 50.6692 50.5336L50.8172 50.5152C50.8236 50.5146 50.8301 50.5146 50.8366 50.5156C50.8682 50.52 50.8975 50.5152 50.9278 50.5115L51.6246 50.425C51.8403 50.3982 51.9601 50.2078 51.8903 49.9995L50.4079 45.5674C50.3327 45.3424 50.0931 45.1969 49.874 45.2423Z" fill="#432D29"/>
<path opacity="0.15" d="M49.9155 45.3947L48.1765 45.7502C48.0407 45.7781 47.972 45.9151 48.0224 46.0566L49.5252 50.2957C49.5719 50.4277 49.7182 50.5207 49.8519 50.5037L51.5685 50.2866C51.71 50.2686 51.7883 50.1434 51.7423 50.0066L50.2653 45.6077C50.2163 45.4608 50.0591 45.3655 49.9155 45.3947Z" fill="#4F3F3D"/>
<path opacity="0.5" d="M48.3798 45.9243C48.2893 45.9501 48.2427 46.0471 48.2753 46.1411L48.5128 46.8251C48.5448 46.9178 48.6445 46.9765 48.7364 46.9558C48.8289 46.9351 48.8782 46.8414 48.8456 46.7471L48.6057 46.0502C48.5727 45.9545 48.4713 45.8982 48.3798 45.9243Z" fill="#4F3F3D"/>
<path d="M48.3668 47.9852C48.556 47.8637 49.3304 48.4958 49.3304 48.4958C49.3304 48.4958 48.2586 47.295 48.4777 47.176C48.6968 47.0569 49.6529 48.0774 49.6529 48.0774C49.6529 48.0774 48.5212 46.7254 48.6567 46.4933C48.7917 46.2616 49.9836 47.7639 49.9836 47.7639C49.9836 47.7639 49.179 46.3036 49.3879 46.173C49.5968 46.042 50.4039 47.5197 50.6366 47.7877C50.7877 47.9617 51.0044 47.9529 50.9918 47.712C50.9792 47.4711 51.2912 47.1078 51.4593 47.1722C51.6274 47.2367 51.2841 47.956 51.4314 48.2064C51.5787 48.4568 51.6791 48.7879 51.6213 48.9375C51.6002 49.325 53.3981 50.3378 53.3981 50.3378C53.3317 50.423 52.9496 51.4615 52.5437 51.6722L50.7723 49.8526C50.7723 49.8526 50.3259 49.7905 49.9551 49.5089C49.5849 49.227 48.1776 48.1063 48.3668 47.9852Z" fill="#F4CABA"/>
<g opacity="0.2">
<path d="M51.47 47.2055C51.505 47.2506 51.4764 47.3493 51.4638 47.389C51.4638 47.389 51.3808 47.4084 51.3815 47.3578C51.3822 47.3076 51.4349 47.1607 51.47 47.2055ZM49.4029 46.1927C49.4594 46.1754 49.5754 46.3209 49.5744 46.342C49.5744 46.342 49.4407 46.4129 49.4121 46.4146C49.3842 46.4163 49.3468 46.21 49.4029 46.1927ZM48.6955 46.531C48.7452 46.4991 48.8966 46.608 48.9011 46.6287C48.9011 46.6287 48.7912 46.7328 48.7643 46.7423C48.7377 46.7515 48.6462 46.5628 48.6955 46.531ZM48.5145 47.2343C48.5625 47.2004 48.7187 47.3022 48.7245 47.3225C48.7245 47.3225 48.6193 47.4318 48.5931 47.4419C48.5666 47.4525 48.4666 47.2686 48.5145 47.2343ZM48.4002 48.0164C48.4376 47.9845 48.5748 48.0571 48.5809 48.0734C48.5809 48.0734 48.5023 48.1718 48.4812 48.1826C48.4601 48.1935 48.3631 48.0486 48.4002 48.0164Z" fill="white"/>
</g>
<path d="M62.0925 46.2063L58.3294 48.2817L58.8959 52.132L51.6206 49.0902L50.7727 49.8526C50.7727 49.8526 58.576 59.4203 62.2293 56.6255C65.8823 53.8301 62.0925 46.2063 62.0925 46.2063Z" fill="#F4CABA"/>
<path d="M57.7435 41.3792C57.7435 41.3792 58.4257 41.2516 60.1565 42.7679C61.9504 44.3395 63.1974 47.2048 63.1974 47.2048C63.1974 47.2048 59.262 50.2038 57.8411 49.5232C56.4202 48.8429 53.9987 43.3365 57.7435 41.3792Z" fill="#23548F"/>
<g opacity="0.15">
<path opacity="0.5" d="M61.5566 45.6736C61.214 45.2586 60.972 44.7707 60.7056 44.3069C60.2436 43.5018 59.7152 42.6043 58.9077 42.0991C58.527 41.861 58.069 41.7571 57.6379 41.919C57.0687 42.1324 56.7693 42.7027 56.3722 43.1228C56.247 43.2551 56.1105 43.3525 55.9673 43.422C56.2395 42.6037 56.7914 41.8766 57.7431 41.3792C57.7431 41.3792 58.4253 41.2516 60.1561 42.7679C61.282 43.7542 62.1922 45.2498 62.7141 46.227C62.2844 46.438 61.7989 45.9671 61.5566 45.6736Z" fill="#F2FAFF"/>
<path d="M55.9462 46.0034C56.2725 46.268 56.6083 46.3966 57.0105 46.5008C57.4817 46.6229 57.8454 46.7868 58.053 47.2506C58.2099 47.6011 58.3119 47.9845 58.5766 48.2756C58.7726 48.491 59.037 48.5837 59.3204 48.6159C59.7665 48.6668 60.233 48.6454 60.6804 48.6264C60.8179 48.6206 60.9547 48.6108 61.0908 48.5969C59.9203 49.2711 58.5593 49.8679 57.841 49.5235C57.1292 49.1825 56.1663 47.6296 55.8533 45.9189C55.8846 45.9464 55.9135 45.9769 55.9462 46.0034Z" fill="#202234"/>
</g>
<path d="M51.25 38.4341L51.4797 41.1376C51.4797 41.1376 53.3868 41.4036 53.9553 40.1184L53.0795 38.0185L51.25 38.4341Z" fill="#F4CABA"/>
<path opacity="0.1" d="M53.1757 38.3361C53.1648 39.1144 51.456 39.6953 51.7068 40.3481C51.8337 40.6789 52.2145 40.8268 52.5523 40.8767C52.7762 40.9099 53.0059 40.9045 53.2325 40.8736C52.4669 41.2753 51.4792 41.1376 51.4792 41.1376L51.2495 38.4341L53.1757 38.3361Z" fill="#513F3C"/>
<path d="M54.0118 33.8256C54.0118 33.8256 55.3704 34.9754 54.9805 36.7753C54.5906 38.5753 53.0254 38.9088 51.286 38.9248C49.5467 38.9407 49.0373 37.4173 48.9628 36.6698C48.8883 35.9224 48.0822 35.9882 48.4436 35.0297C48.8053 34.0712 49.1894 33.2003 50.8485 33.1344C52.5075 33.0686 54.0118 33.8256 54.0118 33.8256Z" fill="#432D29"/>
<path d="M49.1885 35.0626C49.1885 35.0626 48.7911 34.6398 48.4907 34.8512C48.1902 35.0626 48.5567 36.587 49.0892 36.2522C49.6213 35.9173 49.1885 35.0626 49.1885 35.0626Z" fill="#F4CABA"/>
<path d="M54.2856 34.1754C54.2856 34.1754 55.0788 38.3286 51.6007 38.8545C48.123 39.3804 49.1975 33.7302 49.1975 33.7302C49.1975 33.7302 52.9308 33.3818 54.2856 34.1754Z" fill="#F4CABA"/>
<path d="M54.3894 34.8434C54.3894 34.8434 51.3264 35.0314 50.4197 33.9514C50.4197 33.9514 50.2036 34.9985 49.0988 34.741C47.994 34.4831 48.4088 33.093 49.2267 33.1175C49.2267 33.1175 49.9998 30.621 51.8126 31.741C53.6255 32.861 54.5877 31.974 54.6415 33.5884C54.667 34.3365 55.5418 34.9449 54.3894 34.8434Z" fill="#432D29"/>
<path opacity="0.18" d="M48.986 35.2703C48.9693 35.2703 48.9533 35.2608 48.9462 35.2445C48.9451 35.2424 48.8557 35.0453 48.7179 35.0137C48.658 35.0002 48.5974 35.0199 48.5331 35.0735C48.5144 35.0891 48.4872 35.0864 48.4715 35.068C48.4559 35.0497 48.4582 35.0222 48.477 35.0066C48.5627 34.9347 48.6505 34.9082 48.7376 34.9286C48.9176 34.9703 49.0214 35.199 49.0258 35.2088C49.0357 35.2309 49.0258 35.2563 49.0037 35.2662C48.9979 35.2692 48.9918 35.2703 48.986 35.2703Z" fill="#432D29"/>
<path d="M53.8592 34.4953C53.8592 34.4953 54.5527 35.767 53.6874 36.6742C52.8221 37.5812 51.9613 36.2725 51.1416 36.3343C50.322 36.396 49.8157 37.365 49.4635 36.753C49.1114 36.1409 49.0409 35.5878 49.1981 34.4444C48.6877 34.3854 48.8286 36.0276 48.8286 36.0276C48.8286 36.0276 49.2179 37.1669 48.9861 37.9283C48.7544 38.6896 50.0277 40.9557 51.4247 40.1146C52.8218 39.2735 53.5224 39.9749 54.1171 38.5193C54.7119 37.0637 55.4421 34.2476 53.8592 34.4953Z" fill="#432D29"/>
<path d="M53.9427 34.8709C53.9427 34.8709 54.3751 34.4108 54.7021 34.6409C55.0291 34.8709 54.6303 36.5297 54.0509 36.1653C53.4714 35.8009 53.9427 34.8709 53.9427 34.8709Z" fill="#F4CABA"/>
<path opacity="0.18" d="M54.1018 35.0965C54.1199 35.0965 54.1372 35.086 54.1454 35.0684C54.1464 35.0663 54.2441 34.8519 54.3938 34.8173C54.4588 34.8027 54.5248 34.8237 54.5949 34.8824C54.6149 34.8994 54.6449 34.8967 54.6619 34.8767C54.6789 34.8567 54.6762 34.8268 54.6561 34.8102C54.5625 34.7321 54.4673 34.7033 54.3723 34.7254C54.1764 34.7705 54.0637 35.0195 54.059 35.03C54.0484 35.0538 54.0593 35.082 54.0831 35.0925C54.0889 35.0955 54.0954 35.0965 54.1018 35.0965Z" fill="#432D29"/>
<path d="M54.4006 34.9632C54.4006 34.9632 54.6752 35.6326 54.1158 35.9217C54.1158 35.9217 54.9497 35.6021 54.4006 34.9632ZM52.895 35.1182C52.895 35.1182 52.042 35.1898 51.9453 35.1182C51.8487 35.0467 52.0903 34.8353 52.4765 34.879C52.8626 34.9232 52.9913 35.1023 52.895 35.1182ZM52.1747 35.5888C52.1747 35.7266 52.2696 35.8379 52.3863 35.8379C52.503 35.8379 52.5979 35.7266 52.5979 35.5888C52.5979 35.4511 52.503 35.3391 52.3863 35.3391C52.3536 35.3391 52.3227 35.3476 52.2951 35.3642C52.3366 35.3764 52.3672 35.4209 52.3672 35.4738C52.3672 35.5359 52.324 35.5871 52.2709 35.5871C52.2322 35.5871 52.1981 35.5593 52.1835 35.52C52.1777 35.5424 52.1747 35.5651 52.1747 35.5888ZM50.6462 35.1182C50.6462 35.1182 49.7932 35.1898 49.6966 35.1182C49.6 35.0467 49.8415 34.8353 50.2277 34.879C50.6139 34.9232 50.7425 35.1023 50.6462 35.1182ZM49.9259 35.5888C49.9259 35.7266 50.0209 35.8379 50.1376 35.8379C50.2543 35.8379 50.3492 35.7266 50.3492 35.5888C50.3492 35.4511 50.2543 35.3391 50.1376 35.3391C50.1049 35.3391 50.0739 35.3476 50.0464 35.3642C50.0879 35.3764 50.1185 35.4209 50.1185 35.4738C50.1185 35.5359 50.0753 35.5871 50.0222 35.5871C49.9834 35.5871 49.9494 35.5593 49.9348 35.52C49.929 35.5424 49.9259 35.5651 49.9259 35.5888ZM50.9491 36.6753C50.9712 36.6753 50.993 36.6641 51.0049 36.6434C51.0229 36.6128 51.0127 36.5731 50.9821 36.5551C50.8375 36.4703 50.8133 36.4198 50.8113 36.397C50.8075 36.3502 50.8888 36.2837 50.9753 36.2135C51.0277 36.1707 51.0869 36.1222 51.1427 36.0662C51.407 35.8012 51.3366 35.0887 51.3336 35.0585C51.3298 35.0232 51.2982 34.9971 51.2628 35.0012C51.2274 35.0049 51.2015 35.0365 51.2053 35.0718C51.2247 35.2608 51.2352 35.7914 51.0515 35.9753C51.0004 36.0265 50.946 36.071 50.8936 36.1137C50.7759 36.2101 50.6738 36.2932 50.6827 36.4069C50.6895 36.4951 50.7616 36.5752 50.9167 36.6661C50.9266 36.6725 50.9378 36.6753 50.9491 36.6753Z" fill="#432D29"/>
<path d="M50.2172 37.8865C50.2009 37.8892 50.1852 37.8964 50.1723 37.9082C50.1359 37.9412 50.1332 37.9968 50.1659 38.0331C50.1747 38.0426 50.3836 38.2693 50.7337 38.2743C51.0321 38.2791 51.335 38.124 51.6337 37.8139C51.6677 37.7786 51.6667 37.7227 51.6313 37.6887C51.5959 37.6548 51.5398 37.6558 51.5058 37.6911C51.2424 37.9642 50.9831 38.101 50.7364 38.0969C50.4625 38.0928 50.2992 37.9157 50.2975 37.9137C50.2768 37.8913 50.2461 37.8818 50.2172 37.8865Z" fill="white"/>
<path d="M72.0833 37.9744C71.9595 39.4449 71.8404 40.8485 71.7261 42.1884C71.688 42.6397 71.6498 43.0838 71.6141 43.5211C71.607 43.609 71.5212 43.6874 71.4236 43.6945C68.4103 43.9391 65.3994 43.9391 62.3858 43.6945C62.2882 43.6874 62.2024 43.609 62.1953 43.5211C62.0476 41.787 61.8928 39.9413 61.7261 37.9748C61.7213 37.9177 61.7404 37.8655 61.7761 37.8251C61.8094 37.7919 61.8523 37.7681 61.9023 37.7634C63.8533 37.5852 65.8186 37.514 67.7812 37.5449C69.1582 37.5662 70.5372 37.6375 71.9071 37.7634C71.9547 37.7681 71.9976 37.7895 72.0262 37.8204C72.0333 37.8275 72.0405 37.8346 72.0452 37.8418C72.0452 37.8441 72.0476 37.8441 72.0476 37.8441C72.0738 37.8794 72.0881 37.9269 72.0833 37.9744Z" fill="#F1F2FF"/>
<path opacity="0.25" d="M72.0458 37.8424C72.0458 37.8424 70.3959 39.7954 68.0816 40.4346C66.8948 39.89 65.9649 40.3084 65.6008 40.5293H65.5967C64.3623 40.2571 63.0567 39.4639 61.7747 37.8268C61.8063 37.7912 61.8499 37.7678 61.9012 37.7637C65.2207 37.46 68.5875 37.46 71.907 37.7637C71.9546 37.7678 71.9979 37.7874 72.0258 37.819C72.0377 37.8305 72.0417 37.8387 72.0458 37.8424Z" fill="#D3D9EF"/>
<path d="M72.0496 37.8387C72.0138 37.7953 71.9625 37.7637 71.907 37.7637C71.9625 37.7678 72.006 37.7993 72.0414 37.8387V37.8428C71.349 38.5726 70.5579 39.1999 69.6835 39.6929C69.1653 39.9928 68.6508 40.2096 68.1523 40.3518C67.7685 40.1703 67.365 40.0559 66.9417 40.0441C66.4827 40.0559 66.02 40.1978 65.5729 40.4387C64.1642 40.115 62.8866 39.188 61.7825 37.8268C61.7944 37.8071 61.81 37.7953 61.8301 37.7834C61.8145 37.7912 61.7944 37.8031 61.7787 37.8227L61.7747 37.8268C62.2296 38.4226 62.7362 39.0065 63.3333 39.468C63.9781 39.9966 64.6705 40.3518 65.3908 40.5371C64.2394 41.2038 63.1833 42.4388 62.4552 43.5001C63.2701 42.4744 64.4375 41.2 65.6518 40.5964C65.727 40.5571 65.7981 40.5255 65.8733 40.494C66.2292 40.3399 66.5855 40.2493 66.9417 40.2415C67.2503 40.2456 67.5548 40.3125 67.8515 40.4271C67.9189 40.4509 67.9859 40.4784 68.0533 40.5099C68.528 40.723 68.9751 41.0348 69.3905 41.37C70.1302 41.9814 70.8107 42.7075 71.4279 43.5004C70.8543 42.6522 70.1976 41.8868 69.4616 41.2438C69.1016 40.9361 68.7178 40.648 68.3143 40.4349C68.8009 40.285 69.2796 40.0682 69.7427 39.7879C70.613 39.2712 71.3966 38.6123 72.0492 37.8468L72.0533 37.8428L72.0496 37.8387Z" fill="#D3D9EF"/>
<path opacity="0.2" d="M72.0834 37.9744C71.9596 39.4449 71.8405 40.8485 71.7261 42.1884C71.538 42.2193 71.3451 42.2359 71.1497 42.2359C69.1845 42.2359 67.5911 40.6466 67.5911 38.6872C67.5911 38.2859 67.6577 37.9035 67.7816 37.5449C69.1586 37.5662 70.5376 37.6375 71.9075 37.7634C71.9551 37.7681 71.998 37.7895 72.0266 37.8204C72.0337 37.8275 72.0409 37.8346 72.0456 37.8417C72.0456 37.8441 72.048 37.8441 72.048 37.8441C72.0739 37.8794 72.0882 37.9269 72.0834 37.9744Z" fill="#4F3F3D"/>
<path d="M73.1709 40.7033C74.2874 39.5899 74.2874 37.7847 73.1708 36.6713C72.0542 35.5579 70.2439 35.5579 69.1274 36.6713C68.0108 37.7848 68.0109 39.59 69.1275 40.7033C70.244 41.8167 72.0543 41.8167 73.1709 40.7033Z" fill="#D3D9EF"/>
<path d="M72.9352 40.4684C73.9217 39.4847 73.9216 37.8898 72.9351 36.9061C71.9486 35.9225 70.3493 35.9225 69.3628 36.9062C68.3763 37.8899 68.3764 39.4848 69.3629 40.4685C70.3494 41.4521 71.9487 41.4521 72.9352 40.4684Z" fill="white"/>
<path d="M72.6696 39.7689C72.6696 39.8432 72.2038 39.9067 71.5723 39.9253C71.5536 40.1255 71.3865 40.2826 71.1814 40.2826C70.9762 40.2826 70.8091 40.1255 70.7904 39.9253C70.1586 39.9067 69.6931 39.8435 69.6931 39.7689C69.6931 39.7625 69.6969 39.756 69.7033 39.7492C70.0065 39.47 70.1371 39.0486 70.2062 38.6428L70.2556 38.3507C70.2556 37.9507 70.5067 37.609 70.8612 37.475C70.903 37.459 70.933 37.42 70.933 37.3756V37.3382C70.933 37.2025 71.0439 37.0916 71.1804 37.0916C71.3175 37.0916 71.4294 37.2032 71.4294 37.3399V37.3752C71.4294 37.42 71.4594 37.459 71.5012 37.4746C71.5067 37.4763 71.5124 37.4784 71.5172 37.4811C71.3127 37.6124 71.1776 37.8411 71.1776 38.1016C71.1776 38.5091 71.509 38.8396 71.9177 38.8396C72.0119 38.8396 72.1014 38.8219 72.1844 38.7904C72.259 39.1487 72.3927 39.5039 72.6594 39.7489C72.6662 39.7557 72.6696 39.7621 72.6696 39.7689Z" fill="#D3D9EF"/>
<path d="M71.9177 37.4706C71.5679 37.4706 71.2842 37.7535 71.2842 38.1023C71.2842 38.4511 71.5679 38.7341 71.9177 38.7341C72.2675 38.7341 72.5513 38.4511 72.5513 38.1023C72.5513 37.7535 72.2675 37.4706 71.9177 37.4706ZM72.163 38.4297L71.9177 38.3005L71.6714 38.4297L71.719 38.1569L71.5203 37.9635L71.7946 37.9235L71.9177 37.6751L72.0399 37.9235L72.3151 37.9635L72.1164 38.1569L72.163 38.4297Z" fill="#D3D9EF"/>
<path d="M80.0123 32.3055C79.4141 31.1774 78.3015 30.3787 77.0817 30.037C76.7734 29.9509 76.4587 29.8939 76.1399 29.863C76.0432 29.8535 76.0279 30.0031 76.1245 30.0123C77.3488 30.1314 78.5383 30.6786 79.3522 31.6117C80.1582 32.5359 80.5175 33.8194 80.2753 35.0246C80.1266 35.7639 79.7186 36.451 79.116 36.871C79.0864 36.7085 79.0446 36.5473 78.9874 36.3892C78.8289 35.9482 78.5444 35.5356 78.1354 35.2923C77.6883 35.0263 77.0425 34.9388 76.6203 35.2977C75.8221 35.9767 76.6679 37.2303 77.4964 37.404C78.0112 37.5119 78.542 37.3861 79.0024 37.1231C79.0983 38.0219 78.7999 38.9583 78.3175 39.7085C77.1991 41.446 75.165 42.3333 73.211 42.7526C73.1164 42.773 73.1409 42.9209 73.2358 42.9005C75.1763 42.4842 77.1803 41.619 78.3443 39.9389C78.919 39.109 79.2719 38.0504 79.1419 37.0383C79.5294 36.7855 79.8561 36.4361 80.0636 36.0533C80.6873 34.9028 80.6179 33.4479 80.0123 32.3055ZM78.0589 37.2761C77.542 37.3372 77.1106 37.1713 76.7836 36.7669C76.459 36.3651 76.2705 35.7503 76.753 35.3836C77.1572 35.0762 77.7669 35.2105 78.1535 35.483C78.4988 35.7263 78.7309 36.0991 78.8649 36.4941C78.9166 36.6467 78.9534 36.8025 78.9789 36.9596C78.7064 37.1235 78.3988 37.2361 78.0589 37.2761Z" fill="#D3D9EF"/>
<defs>
<radialGradient id="paint0_radial_138_480" cx="0" cy="0" r="1" gradientUnits="userSpaceOnUse" gradientTransform="translate(-4.44677 18.4426) scale(112.219 111.902)">
<stop stop-color="#23548F"/>
<stop offset="0.01" stop-color="#EFF1FF"/>
<stop offset="0.24" stop-color="#23548F"/>
<stop offset="0.461" stop-color="#9EBBFA"/>
<stop offset="0.667" stop-color="#23548F"/>
<stop offset="0.852" stop-color="#74A1F7"/>
<stop offset="1" stop-color="#23548F"/>
</radialGradient>
</defs>
</svg>
