<svg width="20" height="20" viewBox="0 0 20 20" fill="none" xmlns="http://www.w3.org/2000/svg">
<path d="M14 9.5H10.5V6C10.5 5.72388 10.2761 5.5 10 5.5C9.72388 5.5 9.5 5.72388 9.5 6V9.5H6C5.72388 9.5 5.5 9.72388 5.5 10C5.5 10.2761 5.72388 10.5 6 10.5H9.5V14.0005C9.50018 14.2766 9.724 14.5002 10 14.5C10.2759 14.4998 10.5002 14.276 10.5 14V10.5H14C14.2761 10.5 14.5 10.2761 14.5 10C14.5 9.72388 14.2761 9.5 14 9.5ZM10 0C4.47717 0 0 4.47717 0 10C0 15.5228 4.47717 20 10 20C15.5202 19.9937 19.9937 15.5202 20 10C20 4.47717 15.5228 0 10 0ZM10 19C5.02942 19 1 14.9706 1 10C1 5.02942 5.02942 1 10 1C14.9683 1.00562 18.9944 5.03174 19 10C19 14.9706 14.9706 19 10 19Z" fill="black"/>
</svg>
