<svg width="20" height="20" viewBox="0 0 20 20" fill="none" xmlns="http://www.w3.org/2000/svg">
<g clip-path="url(#clip0_3032_1437)">
<path d="M10 0C8.02219 0 6.08879 0.58649 4.4443 1.6853C2.79981 2.78412 1.51809 4.3459 0.761209 6.17317C0.00433282 8.00043 -0.193701 10.0111 0.192152 11.9509C0.578004 13.8907 1.53041 15.6725 2.92894 17.0711C4.32746 18.4696 6.10929 19.422 8.0491 19.8078C9.98891 20.1937 11.9996 19.9957 13.8268 19.2388C15.6541 18.4819 17.2159 17.2002 18.3147 15.5557C19.4135 13.9112 20 11.9778 20 10C19.9983 7.34835 18.9442 4.80579 17.0692 2.93079C15.1942 1.0558 12.6517 0.0016858 10 0ZM14.7182 6.42727L12.7909 12.2182C12.7469 12.3518 12.6722 12.4732 12.5727 12.5727C12.4732 12.6722 12.3518 12.7469 12.2182 12.7909L6.42728 14.7182C6.33703 14.7509 6.24142 14.7663 6.14546 14.7636C5.90395 14.7643 5.67196 14.6696 5.5 14.5C5.38053 14.3813 5.29674 14.2315 5.25817 14.0676C5.2196 13.9037 5.2278 13.7322 5.28182 13.5727L7.2091 7.78182C7.2531 7.6482 7.32784 7.52678 7.42731 7.42731C7.52678 7.32784 7.64821 7.25309 7.78182 7.20909L13.5727 5.28182C13.7323 5.22823 13.9037 5.22023 14.0675 5.25872C14.2314 5.29721 14.3813 5.38066 14.5003 5.49969C14.6193 5.61872 14.7028 5.7686 14.7413 5.93247C14.7798 6.09634 14.7718 6.2677 14.7182 6.42727Z" fill="black"/>
<path d="M12.4182 7.58179L11.3727 10.7272L9.27273 8.62724L12.4182 7.58179Z" fill="black"/>
</g>
<defs>
<clipPath id="clip0_3032_1437">
<rect width="20" height="20" fill="white"/>
</clipPath>
</defs>
</svg>
