<svg width="20" height="20" viewBox="0 0 20 20" fill="none" xmlns="http://www.w3.org/2000/svg">
<path d="M10 0C4.47717 0 0 4.47717 0 10C0 15.5228 4.47717 20 10 20C15.5202 19.9937 19.9937 15.5202 20 10C20 4.47717 15.5228 0 10 0ZM10 19C5.02942 19 1 14.9706 1 10C1 5.02942 5.02942 1 10 1C14.9683 1.00562 18.9944 5.03174 19 10C19 14.9706 14.9706 19 10 19Z" fill="black"/>
<path d="M14.7194 5.27979C14.5944 5.15427 14.4368 5.06619 14.2643 5.02546C14.0919 4.98474 13.9115 4.99299 13.7435 5.0493L7.67524 7.07262C7.53488 7.11952 7.40734 7.19841 7.30269 7.30306C7.19805 7.4077 7.11916 7.53524 7.07226 7.6756L5.04903 13.7445C4.99296 13.9126 4.9848 14.0929 5.02548 14.2653C5.06615 14.4377 5.15405 14.5954 5.27931 14.7207C5.40458 14.8459 5.56226 14.9338 5.73467 14.9745C5.90709 15.0152 6.08743 15.007 6.25547 14.951L12.3242 12.9279C12.4646 12.8812 12.5922 12.8024 12.6968 12.6977C12.8014 12.5931 12.8801 12.4654 12.9267 12.325L14.9491 6.25602C15.0052 6.08803 15.0135 5.90771 14.973 5.73528C14.9324 5.56285 14.8446 5.40513 14.7194 5.27979ZM12 12L8 8L14 6L12 12Z" fill="black"/>
</svg>
