<svg width="17" height="18" viewBox="0 0 17 18" fill="none" xmlns="http://www.w3.org/2000/svg">
<path d="M0 16.3199V17.64C0 17.8388 0.165285 18 0.36955 18H13.5415C13.7457 18 13.911 17.8388 13.911 17.64V16.3199C13.911 16.1211 13.7457 15.9599 13.5415 15.9599H12.7587V10.53H12.9283C13.5967 10.53 14.1402 11.0594 14.1402 11.7104V14.2671C14.1402 15.0351 14.7815 15.66 15.5701 15.66C16.3587 15.66 17 15.0351 17 14.2671V4.25987C17 4.16441 16.961 4.07285 16.8917 4.00534L15.2739 2.42966C15.2739 2.42966 15.2739 2.42968 15.2739 2.42966L14.6848 1.85589C14.5404 1.71525 14.3066 1.71525 14.1622 1.85589C14.0179 1.99651 14.0179 2.2245 14.1622 2.36495L14.6429 2.83315V4.98022C14.6429 5.70797 15.2507 6.3 15.9978 6.3H16.2609V14.2671C16.2609 14.6382 15.9509 14.94 15.5701 14.94C15.1894 14.94 14.8793 14.6382 14.8793 14.2671V11.7104C14.8793 10.6625 14.0041 9.80999 12.9283 9.80999H12.7587V1.27916C12.7587 0.573734 12.1697 0 11.4453 0H2.46533C1.74099 0 1.15199 0.573734 1.15199 1.27916V15.9599H0.36955C0.165285 15.9599 0 16.1211 0 16.3199ZM15.9978 5.58C15.6582 5.58 15.3821 5.31086 15.3821 4.98022V3.55304L16.2609 4.40894V5.58H15.9978ZM1.89115 1.27916C1.89115 0.970837 2.14882 0.719999 2.46533 0.719999H11.4453C11.7619 0.719999 12.0195 0.970837 12.0195 1.27916V15.9599H1.89115V1.27916ZM0.739129 16.6799H1.52157H12.3891H13.1719V17.28H0.739129V16.6799Z" fill="#999999"/>
<path d="M10.9109 1.43994H3.0002C2.79594 1.43994 2.63062 1.60111 2.63062 1.79993V7.34989C2.63062 7.54868 2.79594 7.70988 3.0002 7.70988H10.9109C11.1151 7.70988 11.2804 7.54868 11.2804 7.34989V1.79993C11.2804 1.60111 11.1151 1.43994 10.9109 1.43994ZM10.5413 6.98988H7.59146L8.82122 4.88805C8.92226 4.71528 8.8602 4.49555 8.68297 4.39709C8.50578 4.29814 8.27985 4.35843 8.1788 4.53156L6.74046 6.98988H3.36975V2.15994H10.5413V6.98988ZM10.101 9.20578C9.45098 9.20578 8.92189 9.72116 8.92189 10.3545V13.3154C8.92189 13.9487 9.45098 14.4641 10.101 14.4641C10.7513 14.4641 11.2804 13.9487 11.2804 13.3154V10.3545C11.2804 9.72116 10.7513 9.20578 10.101 9.20578ZM10.5413 13.3154C10.5413 13.5518 10.3439 13.7441 10.101 13.7441C9.85844 13.7441 9.66105 13.5518 9.66105 13.3154V10.3545C9.66105 10.1181 9.85844 9.92578 10.101 9.92578C10.3439 9.92578 10.5413 10.1181 10.5413 10.3545V13.3154Z" fill="#999999"/>
</svg>
