<svg width="24" height="24" viewBox="0 0 24 24" fill="none" xmlns="http://www.w3.org/2000/svg">
<path d="M18.1125 14.2011C18.3475 14.202 18.582 14.2221 18.8137 14.2611V4.59361C18.8128 4.01807 18.5837 3.46638 18.1767 3.0594C17.7697 2.65243 17.218 2.42335 16.6425 2.42236H4.93125C4.3557 2.42335 3.80401 2.65243 3.39704 3.0594C2.99006 3.46638 2.76099 4.01807 2.76 4.59361V17.2349C2.76099 17.8104 2.99006 18.3621 3.39704 18.7691C3.80401 19.176 4.3557 19.4051 4.93125 19.4061H13.9762C13.8298 18.7833 13.8263 18.1355 13.966 17.5111C14.1058 16.8868 14.3852 16.3023 14.7832 15.8014C15.1812 15.3005 15.6876 14.8963 16.2642 14.6192C16.8408 14.342 17.4727 14.1991 18.1125 14.2011ZM5.9175 5.20111H15.6525C15.8017 5.20111 15.9448 5.26038 16.0502 5.36587C16.1557 5.47135 16.215 5.61443 16.215 5.76361C16.215 5.9128 16.1557 6.05587 16.0502 6.16136C15.9448 6.26685 15.8017 6.32611 15.6525 6.32611H5.9175C5.76831 6.32611 5.62524 6.26685 5.51975 6.16136C5.41426 6.05587 5.355 5.9128 5.355 5.76361C5.355 5.61443 5.41426 5.47135 5.51975 5.36587C5.62524 5.26038 5.76831 5.20111 5.9175 5.20111ZM5.9175 8.63611H15.6525C15.8017 8.63611 15.9448 8.69538 16.0502 8.80087C16.1557 8.90635 16.215 9.04943 16.215 9.19861C16.215 9.3478 16.1557 9.49087 16.0502 9.59636C15.9448 9.70185 15.8017 9.76111 15.6525 9.76111H5.9175C5.76831 9.76111 5.62524 9.70185 5.51975 9.59636C5.41426 9.49087 5.355 9.3478 5.355 9.19861C5.355 9.04943 5.41426 8.90635 5.51975 8.80087C5.62524 8.69538 5.76831 8.63611 5.9175 8.63611ZM5.9175 12.0674H15.6525C15.8017 12.0674 15.9448 12.1266 16.0502 12.2321C16.1557 12.3376 16.215 12.4807 16.215 12.6299C16.215 12.779 16.1557 12.9221 16.0502 13.0276C15.9448 13.1331 15.8017 13.1924 15.6525 13.1924H5.9175C5.76831 13.1924 5.62524 13.1331 5.51975 13.0276C5.41426 12.9221 5.355 12.779 5.355 12.6299C5.355 12.4807 5.41426 12.3376 5.51975 12.2321C5.62524 12.1266 5.76831 12.0674 5.9175 12.0674ZM12.9262 16.6274H5.9175C5.76831 16.6274 5.62524 16.5681 5.51975 16.4626C5.41426 16.3571 5.355 16.214 5.355 16.0649C5.355 15.9157 5.41426 15.7726 5.51975 15.6671C5.62524 15.5616 5.76831 15.5024 5.9175 15.5024H12.9262C13.0754 15.5024 13.2185 15.5616 13.324 15.6671C13.4295 15.7726 13.4887 15.9157 13.4887 16.0649C13.4887 16.214 13.4295 16.3571 13.324 16.4626C13.2185 16.5681 13.0754 16.6274 12.9262 16.6274ZM18.1125 15.3261C17.4943 15.3265 16.8901 15.5102 16.3763 15.8539C15.8625 16.1977 15.4622 16.6861 15.226 17.2573C14.9897 17.8286 14.9282 18.4571 15.0492 19.0634C15.1701 19.6696 15.4682 20.2264 15.9055 20.6632C16.3429 21.1001 16.9 21.3974 17.5064 21.5177C18.1128 21.6379 18.7412 21.5756 19.3122 21.3387C19.8832 21.1018 20.3711 20.7009 20.7143 20.1867C21.0574 19.6725 21.2404 19.0681 21.24 18.4499C21.2393 17.621 20.9095 16.8263 20.323 16.2405C19.7365 15.6547 18.9414 15.3258 18.1125 15.3261ZM19.605 19.0124H18.1125C17.9633 19.0124 17.8202 18.9531 17.7148 18.8476C17.6093 18.7421 17.55 18.599 17.55 18.4499V16.7361C17.55 16.5869 17.6093 16.4439 17.7148 16.3384C17.8202 16.2329 17.9633 16.1736 18.1125 16.1736C18.2617 16.1736 18.4048 16.2329 18.5102 16.3384C18.6157 16.4439 18.675 16.5869 18.675 16.7361V17.8874H19.605C19.7542 17.8874 19.8973 17.9466 20.0027 18.0521C20.1082 18.1576 20.1675 18.3007 20.1675 18.4499C20.1675 18.599 20.1082 18.7421 20.0027 18.8476C19.8973 18.9531 19.7542 19.0124 19.605 19.0124Z" fill="black"/>
</svg>
