<svg width="24" height="24" viewBox="0 0 24 24" fill="none" xmlns="http://www.w3.org/2000/svg">
<path d="M14.6438 20.2162H5.20875C4.36368 20.2152 3.5535 19.8791 2.95595 19.2815C2.35839 18.684 2.02224 17.8738 2.02125 17.0287V4.88623C2.02224 4.04116 2.35839 3.23098 2.95595 2.63342C3.5535 2.03587 4.36368 1.69972 5.20875 1.69873H16.4588C17.3038 1.69972 18.114 2.03587 18.7116 2.63342C19.3091 3.23098 19.6453 4.04116 19.6463 4.88623V14.865C19.6463 15.0142 19.587 15.1572 19.4815 15.2627C19.376 15.3682 19.2329 15.4275 19.0838 15.4275C18.9346 15.4275 18.7915 15.3682 18.686 15.2627C18.5805 15.1572 18.5213 15.0142 18.5213 14.865V4.88623C18.5206 4.33943 18.303 3.81523 17.9164 3.42859C17.5297 3.04195 17.0055 2.82443 16.4588 2.82373H5.20875C4.66196 2.82443 4.13775 3.04195 3.75111 3.42859C3.36447 3.81523 3.14695 4.33943 3.14625 4.88623V17.0287C3.14695 17.5755 3.36447 18.0997 3.75111 18.4864C4.13775 18.873 4.66196 19.0905 5.20875 19.0912H14.6438C14.7929 19.0912 14.936 19.1505 15.0415 19.256C15.147 19.3615 15.2063 19.5045 15.2063 19.6537C15.2063 19.8029 15.147 19.946 15.0415 20.0515C14.936 20.157 14.7929 20.2162 14.6438 20.2162Z" fill="black"/>
<path d="M15.51 6.57227H6.1575C6.00832 6.57227 5.86524 6.513 5.75975 6.40751C5.65426 6.30202 5.595 6.15895 5.595 6.00977C5.595 5.86058 5.65426 5.71751 5.75975 5.61202C5.86524 5.50653 6.00832 5.44727 6.1575 5.44727H15.51C15.6592 5.44727 15.8023 5.50653 15.9077 5.61202C16.0132 5.71751 16.0725 5.86058 16.0725 6.00977C16.0725 6.15895 16.0132 6.30202 15.9077 6.40751C15.8023 6.513 15.6592 6.57227 15.51 6.57227ZM15.51 9.87077H6.1575C6.00832 9.87077 5.86524 9.8115 5.75975 9.70601C5.65426 9.60052 5.595 9.45745 5.595 9.30827C5.595 9.15908 5.65426 9.01601 5.75975 8.91052C5.86524 8.80503 6.00832 8.74577 6.1575 8.74577H15.51C15.6592 8.74577 15.8023 8.80503 15.9077 8.91052C16.0132 9.01601 16.0725 9.15908 16.0725 9.30827C16.0725 9.45745 16.0132 9.60052 15.9077 9.70601C15.8023 9.8115 15.6592 9.87077 15.51 9.87077ZM15.51 13.1689H6.1575C6.00832 13.1689 5.86524 13.1096 5.75975 13.0041C5.65426 12.8986 5.595 12.7556 5.595 12.6064C5.595 12.4572 5.65426 12.3141 5.75975 12.2086C5.86524 12.1032 6.00832 12.0439 6.1575 12.0439H15.51C15.6592 12.0439 15.8023 12.1032 15.9077 12.2086C16.0132 12.3141 16.0725 12.4572 16.0725 12.6064C16.0725 12.7556 16.0132 12.8986 15.9077 13.0041C15.8023 13.1096 15.6592 13.1689 15.51 13.1689ZM12.8895 16.467H6.15788C6.00869 16.467 5.86562 16.4078 5.76013 16.3023C5.65464 16.1968 5.59538 16.0537 5.59538 15.9045C5.59538 15.7553 5.65464 15.6123 5.76013 15.5068C5.86562 15.4013 6.00869 15.342 6.15788 15.342H12.8895C13.0387 15.342 13.1818 15.4013 13.2872 15.5068C13.3927 15.6123 13.452 15.7553 13.452 15.9045C13.452 16.0537 13.3927 16.1968 13.2872 16.3023C13.1818 16.4078 13.0387 16.467 12.8895 16.467ZM17.8733 22.3016C17.0613 22.3016 16.2675 22.0609 15.5924 21.6097C14.9172 21.1586 14.391 20.5174 14.0803 19.7672C13.7695 19.0171 13.6882 18.1916 13.8466 17.3952C14.005 16.5988 14.3961 15.8673 14.9702 15.2931C15.5444 14.7189 16.2759 14.3279 17.0723 14.1695C17.8687 14.0111 18.6942 14.0924 19.4444 14.4032C20.1945 14.7139 20.8357 15.2401 21.2869 15.9152C21.738 16.5904 21.9788 17.3841 21.9788 18.1961C21.9775 19.2846 21.5445 20.328 20.7748 21.0976C20.0052 21.8672 18.9617 22.3005 17.8733 22.3016ZM17.8733 15.2156C17.2837 15.2156 16.7074 15.3903 16.2172 15.7178C15.727 16.0453 15.345 16.5107 15.1193 17.0554C14.8937 17.6 14.8346 18.1993 14.9496 18.7775C15.0646 19.3557 15.3485 19.8868 15.7653 20.3037C16.1822 20.7205 16.7133 21.0044 17.2915 21.1194C17.8697 21.2344 18.469 21.1753 19.0136 20.9497C19.5583 20.7241 20.0238 20.342 20.3512 19.8518C20.6787 19.3616 20.8535 18.7853 20.8534 18.1958C20.8524 17.4057 20.5381 16.6483 19.9794 16.0896C19.4208 15.5309 18.6633 15.2166 17.8733 15.2156Z" fill="black"/>
<path d="M19.3054 18.7586H17.8732C17.7241 18.7586 17.581 18.6993 17.4755 18.5938C17.37 18.4883 17.3107 18.3452 17.3107 18.1961V16.5498C17.3107 16.4006 17.37 16.2575 17.4755 16.1521C17.581 16.0466 17.7241 15.9873 17.8732 15.9873C18.0224 15.9873 18.1655 16.0466 18.271 16.1521C18.3765 16.2575 18.4357 16.4006 18.4357 16.5498V17.6336H19.3057C19.4549 17.6336 19.598 17.6928 19.7035 17.7983C19.809 17.9038 19.8682 18.0469 19.8682 18.1961C19.8682 18.3452 19.809 18.4883 19.7035 18.5938C19.598 18.6993 19.4546 18.7586 19.3054 18.7586Z" fill="black"/>
</svg>
