<svg width="18" height="18" viewBox="0 0 18 18" fill="none" xmlns="http://www.w3.org/2000/svg">
<g clip-path="url(#clip0_3094_1259)">
<path d="M8.73809 5.43868C8.73809 5.57755 8.7293 5.71641 8.70996 5.85352C8.71699 5.80606 8.72227 5.76036 8.7293 5.7129C8.69062 5.98712 8.61855 6.2543 8.51133 6.51095L8.56406 6.38438C8.48848 6.56192 8.39531 6.73243 8.28809 6.89415C8.25996 6.93634 8.23008 6.97677 8.20195 7.0172C8.13691 7.1086 8.2793 6.92227 8.22129 6.99259C8.20723 7.01016 8.19316 7.02774 8.17734 7.04708C8.11582 7.12091 8.05078 7.19122 7.98398 7.25977C7.91543 7.32833 7.84512 7.39161 7.77129 7.45313C7.75371 7.4672 7.73613 7.48302 7.7168 7.49708C7.64648 7.55509 7.82051 7.41973 7.75019 7.47071C7.70976 7.50059 7.66934 7.52872 7.62715 7.55684C7.46367 7.66759 7.28965 7.76075 7.10859 7.83809L7.23516 7.78536C6.98027 7.89259 6.71309 7.96641 6.43711 8.00333C6.48457 7.9963 6.53027 7.99102 6.57773 7.98399C6.30176 8.01915 6.02402 8.01915 5.74805 7.98399C5.79551 7.99102 5.84121 7.9963 5.88867 8.00333C5.61445 7.96466 5.34727 7.89259 5.09062 7.78536L5.21719 7.83809C5.03965 7.76251 4.86914 7.66934 4.70742 7.56212C4.66523 7.53399 4.6248 7.50411 4.58437 7.47598C4.49297 7.41095 4.6793 7.55333 4.60898 7.49532C4.59141 7.48126 4.57383 7.4672 4.55449 7.45138C4.48066 7.38985 4.41035 7.32481 4.3418 7.25802C4.27324 7.18946 4.20996 7.11915 4.14844 7.04532C4.13437 7.02774 4.11855 7.01016 4.10449 6.99083C4.04648 6.92052 4.18184 7.09454 4.13086 7.02423C4.10098 6.9838 4.07285 6.94337 4.04473 6.90118C3.93398 6.7377 3.84082 6.56368 3.76348 6.38263L3.81621 6.50919C3.70898 6.2543 3.63516 5.98712 3.59824 5.71114C3.60527 5.7586 3.61055 5.8043 3.61758 5.85177C3.58242 5.57579 3.58242 5.29806 3.61758 5.02208C3.61055 5.06954 3.60527 5.11524 3.59824 5.1627C3.63691 4.88848 3.70898 4.6213 3.81621 4.36466L3.76348 4.49122C3.83906 4.31368 3.93223 4.14317 4.03945 3.98145C4.06758 3.93927 4.09746 3.89884 4.12559 3.85841C4.19062 3.767 4.04824 3.95333 4.10625 3.88302C4.12031 3.86544 4.13437 3.84786 4.15019 3.82852C4.21172 3.7547 4.27676 3.68438 4.34355 3.61583C4.41035 3.54727 4.48242 3.48399 4.55625 3.42247C4.57383 3.40841 4.59141 3.39259 4.61074 3.37852C4.68105 3.32052 4.50703 3.45587 4.57734 3.40489C4.61777 3.37501 4.6582 3.34688 4.70039 3.31876C4.86387 3.20802 5.03789 3.11485 5.21894 3.03751L5.09238 3.09024C5.34727 2.98302 5.61445 2.90919 5.89043 2.87227C5.84297 2.8793 5.79727 2.88458 5.7498 2.89161C6.02578 2.85645 6.30351 2.85645 6.57949 2.89161C6.53203 2.88458 6.48633 2.8793 6.43887 2.87227C6.71309 2.91095 6.98027 2.98302 7.23691 3.09024L7.11035 3.03751C7.28789 3.11309 7.4584 3.20626 7.62012 3.31348C7.6623 3.34161 7.70273 3.37149 7.74316 3.39962C7.83457 3.46466 7.64824 3.32227 7.71855 3.38028C7.73613 3.39434 7.75371 3.40841 7.77305 3.42423C7.84687 3.48575 7.91719 3.55079 7.98574 3.61759C8.0543 3.68614 8.11758 3.75645 8.1791 3.83028C8.19316 3.84786 8.20898 3.86544 8.22305 3.88477C8.28105 3.95509 8.1457 3.78106 8.19668 3.85138C8.22656 3.8918 8.25469 3.93223 8.28281 3.97442C8.39355 4.1379 8.48672 4.31192 8.56406 4.49298L8.51133 4.36641C8.61855 4.6213 8.69238 4.88848 8.7293 5.16446C8.72227 5.117 8.71699 5.0713 8.70996 5.02384C8.7293 5.16095 8.73809 5.29981 8.73809 5.43868C8.73984 5.71466 8.98066 5.97833 9.26543 5.96602C9.55019 5.95372 9.79453 5.73399 9.79277 5.43868C9.78926 4.70567 9.56953 3.96212 9.14062 3.36622C8.69414 2.74571 8.09473 2.28516 7.37578 2.01973C5.98887 1.50997 4.32598 1.95997 3.39082 3.10431C2.89863 3.70723 2.60684 4.41739 2.54531 5.19434C2.4873 5.92559 2.67539 6.68497 3.05508 7.31075C3.42246 7.91544 3.97441 8.42872 4.62129 8.72227C5.34551 9.04923 6.12773 9.14415 6.9082 8.99122C8.33027 8.70997 9.5168 7.4918 9.73652 6.05567C9.76816 5.85177 9.79101 5.64786 9.79101 5.44044C9.79277 5.16446 9.54844 4.90079 9.26367 4.91309C8.97891 4.92364 8.73984 5.14161 8.73809 5.43868ZM14.966 6.41427C14.966 6.51973 14.959 6.6252 14.9449 6.73067C14.952 6.68321 14.9572 6.63751 14.9643 6.59005C14.9361 6.79395 14.8816 6.99083 14.8008 7.18067L14.8535 7.05411C14.7973 7.18595 14.7305 7.31075 14.6496 7.43028C14.6285 7.46192 14.6057 7.49356 14.5828 7.5252C14.5705 7.54102 14.5336 7.59024 14.5898 7.51817C14.6479 7.44259 14.6021 7.50059 14.5881 7.51817C14.5424 7.57442 14.4932 7.62716 14.4422 7.67989C14.393 7.72911 14.342 7.77481 14.2893 7.81876C14.284 7.82403 14.2523 7.85743 14.2453 7.85567C14.2453 7.85567 14.3561 7.77306 14.298 7.81524C14.2664 7.83809 14.2365 7.86095 14.2049 7.88204C14.0836 7.96466 13.9535 8.03321 13.8199 8.09122L13.9465 8.03848C13.7566 8.11759 13.5598 8.17208 13.3559 8.20196C13.4033 8.19493 13.449 8.18966 13.4965 8.18263C13.2855 8.21075 13.0746 8.21075 12.8637 8.18263C12.9111 8.18966 12.9568 8.19493 13.0043 8.20196C12.8004 8.17384 12.6035 8.11934 12.4137 8.03848L12.5402 8.09122C12.4084 8.03497 12.2836 7.96817 12.1641 7.88731C12.1324 7.86622 12.1008 7.84337 12.0691 7.82052C12.0533 7.80821 12.0041 7.7713 12.0762 7.82755C12.1518 7.88555 12.0937 7.83985 12.0762 7.82579C12.0199 7.78009 11.9672 7.73087 11.9145 7.67989C11.8652 7.63067 11.8195 7.5797 11.7756 7.52696C11.7703 7.52169 11.7369 7.49005 11.7387 7.48302C11.7387 7.48302 11.8213 7.59376 11.7791 7.53575C11.7562 7.50411 11.7334 7.47423 11.7123 7.44259C11.6297 7.3213 11.5611 7.19122 11.5031 7.05763L11.5559 7.18419C11.4768 6.99434 11.4223 6.79747 11.3924 6.59356C11.3994 6.64102 11.4047 6.68673 11.4117 6.73419C11.3836 6.52325 11.3836 6.31231 11.4117 6.10138C11.4047 6.14884 11.3994 6.19454 11.3924 6.242C11.4205 6.03809 11.475 5.84122 11.5559 5.65138L11.5031 5.77794C11.5594 5.6461 11.6262 5.5213 11.707 5.40177C11.7281 5.37013 11.751 5.33848 11.7738 5.30684C11.7861 5.29102 11.823 5.2418 11.7668 5.31387C11.7088 5.38946 11.7545 5.33145 11.7686 5.31387C11.8143 5.25762 11.8635 5.20489 11.9145 5.15216C11.9637 5.10294 12.0146 5.05723 12.0674 5.01329C12.0727 5.00802 12.1043 4.97462 12.1113 4.97638C12.1113 4.97638 12.0006 5.05899 12.0586 5.0168C12.0902 4.99395 12.1201 4.9711 12.1518 4.95001C12.273 4.86739 12.4031 4.79884 12.5367 4.74083L12.4102 4.79356C12.6 4.71446 12.7969 4.65997 13.0008 4.63009C12.9533 4.63712 12.9076 4.64239 12.8602 4.64942C13.0711 4.6213 13.282 4.6213 13.493 4.64942C13.4455 4.64239 13.3998 4.63712 13.3523 4.63009C13.5562 4.65821 13.7531 4.7127 13.943 4.79356L13.8164 4.74083C13.9482 4.79708 14.073 4.86387 14.1926 4.94473C14.2242 4.96583 14.2559 4.98868 14.2875 5.01153C14.3033 5.02384 14.3525 5.06075 14.2805 5.0045C14.2049 4.94649 14.2629 4.9922 14.2805 5.00626C14.3367 5.05196 14.3895 5.10118 14.4422 5.15216C14.4914 5.20138 14.5371 5.25235 14.5811 5.30509C14.5863 5.31036 14.6197 5.342 14.618 5.34903C14.618 5.34903 14.5354 5.23829 14.5775 5.2963C14.6004 5.32794 14.6232 5.35782 14.6443 5.38946C14.727 5.51075 14.7955 5.64083 14.8535 5.77442L14.8008 5.64786C14.8799 5.8377 14.9344 6.03458 14.9643 6.23848C14.9572 6.19102 14.952 6.14532 14.9449 6.09786C14.959 6.20333 14.966 6.3088 14.966 6.41427C14.9678 6.69024 15.2068 6.95391 15.4934 6.94161C15.7781 6.9293 16.0225 6.70958 16.0207 6.41427C16.0172 5.84649 15.8484 5.2629 15.5162 4.79884C15.1611 4.30489 14.69 3.94102 14.117 3.73184C13.043 3.33809 11.7404 3.68966 11.0162 4.57384C10.626 5.0502 10.3975 5.60216 10.3465 6.21739C10.299 6.78692 10.4467 7.38458 10.742 7.87501C11.0268 8.34786 11.4592 8.75391 11.9654 8.98067C12.542 9.24083 13.1572 9.31641 13.7777 9.19161C14.8781 8.97013 15.8062 8.01915 15.9768 6.90645C16.0014 6.74298 16.0207 6.5795 16.0225 6.41427C16.0242 6.13829 15.7781 5.87462 15.4951 5.88692C15.2068 5.89923 14.9678 6.11895 14.966 6.41427ZM10.9424 13.667V14.335C10.9424 14.5635 10.9617 14.8025 10.9354 15.0311C10.9424 14.9836 10.9477 14.9379 10.9547 14.8904C10.9459 14.9537 10.9301 15.0135 10.9055 15.0715L10.9582 14.9449C10.9389 14.9871 10.916 15.0275 10.8932 15.0662C10.8527 15.1365 10.9705 14.9818 10.9283 15.024C10.9125 15.0399 10.8984 15.0592 10.8826 15.075C10.8686 15.0891 10.8545 15.1014 10.8404 15.1137C10.7771 15.1734 10.9512 15.0434 10.8738 15.0856C10.8334 15.1084 10.7947 15.1313 10.7525 15.1506L10.8791 15.0979C10.8193 15.1207 10.7613 15.1365 10.698 15.1471C10.7455 15.14 10.7912 15.1348 10.8387 15.1277C10.7332 15.14 10.6242 15.1348 10.517 15.1348H2.69121C2.32734 15.1348 1.96523 15.1383 1.60137 15.1348C1.56621 15.1348 1.5293 15.133 1.49414 15.1277C1.5416 15.1348 1.5873 15.14 1.63476 15.1471C1.57148 15.1383 1.51172 15.1225 1.45371 15.0979L1.58027 15.1506C1.53809 15.1313 1.49766 15.1084 1.45898 15.0856C1.38867 15.0451 1.54336 15.1629 1.50117 15.1207C1.48535 15.1049 1.46601 15.0908 1.45019 15.075C1.43613 15.0609 1.42383 15.0469 1.41152 15.0328C1.35176 14.9695 1.48184 15.1436 1.43965 15.0662C1.4168 15.0258 1.39394 14.9871 1.37461 14.9449L1.42734 15.0715C1.40449 15.0117 1.38867 14.952 1.37812 14.8904C1.38516 14.9379 1.39043 14.9836 1.39746 15.0311C1.37109 14.8307 1.38867 14.6215 1.38867 14.4211V13.6986C1.38867 13.5316 1.39746 13.3664 1.41855 13.2012C1.41152 13.2486 1.40625 13.2943 1.39922 13.3418C1.44141 13.0272 1.52402 12.7213 1.64707 12.4295L1.59434 12.5561C1.68223 12.3504 1.78945 12.1518 1.91426 11.9654C1.94414 11.9215 1.97578 11.8775 2.00742 11.8336C2.08476 11.7299 1.94062 11.9162 1.99512 11.8494C2.01445 11.8248 2.03379 11.802 2.05312 11.7774C2.12168 11.6947 2.19375 11.6156 2.27109 11.54C2.34668 11.4645 2.42578 11.3924 2.5084 11.3221C2.53125 11.3027 2.55586 11.2834 2.58047 11.2641C2.65254 11.2061 2.46621 11.3484 2.55586 11.2834C2.60332 11.25 2.64902 11.2149 2.69648 11.1832C2.88281 11.0584 3.07969 10.9512 3.28711 10.8633L3.16055 10.916C3.45234 10.793 3.7582 10.7104 4.07285 10.6682C4.02539 10.6752 3.97969 10.6805 3.93223 10.6875C4.16426 10.6576 4.39453 10.6576 4.62656 10.6576H7.59199C7.86621 10.6576 8.14043 10.6541 8.41465 10.6893C8.36719 10.6822 8.32148 10.677 8.27402 10.6699C8.5834 10.7139 8.88398 10.7965 9.17227 10.916L9.0457 10.8633C9.26543 10.9565 9.47461 11.0707 9.66973 11.2061C9.71719 11.2377 9.76113 11.2729 9.80684 11.3063C9.65918 11.199 9.80684 11.308 9.84375 11.3379C9.92637 11.4082 10.0072 11.482 10.0828 11.5611C10.1584 11.6385 10.2322 11.7211 10.3008 11.8055C10.3166 11.8248 10.3342 11.8459 10.35 11.867C10.3324 11.8459 10.3166 11.8231 10.299 11.802L10.3307 11.8441C10.3623 11.8863 10.3922 11.9303 10.4203 11.9725C10.5416 12.1553 10.6471 12.3504 10.7332 12.5525L10.6805 12.426C10.8018 12.716 10.8861 13.0201 10.9283 13.333C10.9213 13.2856 10.916 13.2399 10.909 13.1924C10.9318 13.3506 10.9424 13.5088 10.9424 13.667C10.9441 13.943 11.185 14.2066 11.4697 14.1943C11.7545 14.182 11.9988 13.9623 11.9971 13.667C11.9953 13.2117 11.9232 12.7494 11.7668 12.3205C11.6033 11.8723 11.3766 11.475 11.0813 11.1006C10.5188 10.3887 9.675 9.8754 8.7873 9.69259C8.3584 9.6047 7.93477 9.60118 7.50059 9.60118H4.70566C4.27148 9.60118 3.84082 9.617 3.41543 9.72071C1.88965 10.0951 0.643359 11.4082 0.397265 12.9674C0.316406 13.4754 0.333984 13.9852 0.333984 14.4984C0.333984 14.6672 0.323437 14.8395 0.337499 15.0082C0.383202 15.5461 0.757617 16.0488 1.30605 16.1578C1.50117 16.1965 1.68926 16.1912 1.88437 16.1912H10.7297C11.0725 16.1895 11.4205 16.0541 11.6525 15.7992C11.8564 15.576 11.9672 15.3088 11.9936 15.0082C11.9988 14.9484 11.9971 14.8887 11.9971 14.8272V13.667C11.9971 13.391 11.7545 13.1274 11.4697 13.1397C11.185 13.152 10.9424 13.3699 10.9424 13.667Z" fill="#999999"/>
<path d="M16.6113 12.7424V13.3541C16.6113 13.5597 16.6254 13.7724 16.6078 13.9781C16.6148 13.9306 16.6201 13.8849 16.6271 13.8375C16.6219 13.8761 16.6131 13.9131 16.599 13.95L16.6518 13.8234C16.643 13.8445 16.6307 13.8638 16.6219 13.8849C16.5832 13.964 16.7168 13.7812 16.6412 13.8586C16.5691 13.9306 16.7238 13.8146 16.6781 13.8322C16.6535 13.841 16.6324 13.8586 16.6078 13.8691L16.7344 13.8164C16.6975 13.8304 16.6605 13.8392 16.6219 13.8445C16.6693 13.8375 16.715 13.8322 16.7625 13.8252C16.5797 13.841 16.3916 13.8287 16.2088 13.8287H11.4697L11.9971 14.356C11.9971 14.0062 12.0146 13.6511 11.9795 13.3031C11.9074 12.5894 11.6701 11.8933 11.243 11.3115C10.9828 10.9564 10.6893 10.6629 10.3412 10.3957C10.3764 10.6717 10.4115 10.9476 10.4484 11.2236C10.4766 11.199 10.5047 11.1761 10.5328 11.1533C10.6119 11.0865 10.4291 11.2271 10.5135 11.1691C10.5662 11.1322 10.6189 11.0953 10.6734 11.0601C10.7842 10.9916 10.9002 10.9318 11.0197 10.8808L10.8932 10.9336C11.0953 10.8492 11.3063 10.7912 11.5225 10.7595C11.475 10.7666 11.4293 10.7719 11.3818 10.7789C11.5699 10.7543 11.7563 10.7543 11.9461 10.7543H14.3596C14.5617 10.7543 14.7621 10.7508 14.9643 10.7771C14.9168 10.7701 14.8711 10.7648 14.8236 10.7578C15.0434 10.7894 15.2561 10.8474 15.4617 10.9318L15.3352 10.8791C15.4811 10.9424 15.6217 11.0162 15.7535 11.1041C15.7852 11.1252 15.8168 11.148 15.8484 11.1709C15.924 11.2254 15.815 11.1375 15.8063 11.1375C15.815 11.1375 15.8432 11.1674 15.8502 11.1744C15.9117 11.2254 15.9715 11.2799 16.0295 11.3361C16.084 11.3906 16.135 11.4469 16.1842 11.5066C16.1965 11.5207 16.2088 11.5365 16.2211 11.5506C16.2598 11.598 16.1402 11.4416 16.1877 11.5084C16.2105 11.54 16.2334 11.5699 16.2545 11.6015C16.3459 11.7369 16.4232 11.8793 16.4865 12.0287L16.4338 11.9021C16.5199 12.106 16.5779 12.3205 16.6078 12.5402C16.6008 12.4927 16.5955 12.447 16.5885 12.3996C16.6043 12.5138 16.6113 12.6281 16.6113 12.7424C16.6131 13.0183 16.8521 13.282 17.1387 13.2697C17.4234 13.2574 17.6678 13.0377 17.666 12.7424C17.6625 11.8775 17.2863 11.0127 16.6219 10.4502C16.0471 9.9615 15.3387 9.69958 14.5828 9.69958H11.9373C11.7035 9.69958 11.475 9.70837 11.243 9.74353C10.6664 9.82791 10.1391 10.1004 9.70137 10.4801C9.57656 10.589 9.53613 10.7666 9.55547 10.923C9.58008 11.0988 9.66973 11.2025 9.80684 11.308C9.79805 11.301 9.7084 11.2289 9.76289 11.2746C9.77695 11.2851 9.78926 11.2957 9.80332 11.308C9.8332 11.3326 9.86309 11.359 9.89297 11.3836C9.94922 11.4328 10.002 11.4838 10.0547 11.5347C10.1074 11.5875 10.1584 11.6402 10.2076 11.6965C10.2533 11.7492 10.2973 11.823 10.35 11.867C10.3412 11.8599 10.2744 11.765 10.3148 11.823L10.3465 11.8652C10.3676 11.8933 10.3869 11.9215 10.4063 11.9513C10.4484 12.0129 10.4871 12.0761 10.5258 12.1394C10.6049 12.273 10.6734 12.4101 10.7332 12.5525L10.6805 12.426C10.8018 12.716 10.8861 13.0201 10.9283 13.333C10.9213 13.2855 10.916 13.2398 10.909 13.1924C10.9582 13.5756 10.9406 13.9676 10.9406 14.3543C10.9406 14.639 11.1814 14.8816 11.468 14.8816H16.5393C16.7238 14.8816 16.8979 14.8799 17.0736 14.8043C17.4322 14.6531 17.6537 14.3156 17.6625 13.9271C17.6643 13.841 17.6625 13.7531 17.6625 13.6652V12.7388C17.6625 12.4629 17.4199 12.1992 17.1352 12.2115C16.8539 12.2273 16.6113 12.447 16.6113 12.7424Z" fill="#999999"/>
</g>
<defs>
<clipPath id="clip0_3094_1259">
<rect width="18" height="18" fill="white"/>
</clipPath>
</defs>
</svg>
